<?xml version="1.0" encoding="UTF-8"?>
<svg width="98px" height="98px" viewBox="0 0 98 98" version="1.1" xmlns="http://www.w3.org/2000/svg" xmlns:xlink="http://www.w3.org/1999/xlink">
    <title>aid-kit</title>
    <defs>
        <polygon id="path-1" points="0 0 98 0 98 98 0 98"></polygon>
        <linearGradient x1="50%" y1="0%" x2="50%" y2="100%" id="linearGradient-3">
            <stop stop-color="#B1B1B1" offset="0%"></stop>
            <stop stop-color="#D5D5D5" offset="46.396315%"></stop>
            <stop stop-color="#ABABAB" offset="100%"></stop>
        </linearGradient>
        <path d="M57.1885313,63.3771776 L57.1877715,62.8605926 L5.88403931,58.3765195 C3.83263209,58.1972076 3.10444193,57.9349081 2.375411,57.4895824 C1.64638008,57.0442568 1.0839702,56.4305426 0.703818049,55.6655032 C0.323665901,54.9004637 0.125771484,54.1521992 0.125771484,52.0929702 L0.125771484,12.1403677 C0.125771484,10.04296 0.333345748,9.2812474 0.728826041,8.50629493 C1.12430633,7.73134245 1.70769265,7.11436705 2.45931677,6.67616939 C3.21094088,6.23797172 3.95985376,5.98812644 6.05397943,5.87083701 L57.1877715,3.0055926 L57.1885313,0.698592602 L63.9925313,2.67171501 L63.992515,2.7196702 C66.2407535,3.03806224 68.026343,4.90645279 68.1581665,7.2600741 C68.1632355,7.35057769 68.1657715,7.44120539 68.1657715,7.53185083 L68.1657715,58.5171776 C68.1657715,60.9680321 66.3516158,62.9951677 63.9929119,63.3289771 L63.9925313,63.3771776 L57.1885313,63.3771776 Z" id="path-4"></path>
    </defs>
    <g id="aid-kit" stroke="none" stroke-width="1" fill="none" fill-rule="evenodd">
        <g id="Group-15-Copy">
            <mask id="mask-2" fill="white">
                <use xlink:href="#path-1"></use>
            </mask>
            <use id="Mask" fill-opacity="0" fill="#FFFFFF" fill-rule="nonzero" xlink:href="#path-1"></use>
            <g id="Group-15" mask="url(#mask-2)">
                <g transform="translate(56.172656, 49.000000) rotate(-20.000000) translate(-56.172656, -49.000000) translate(18.264656, 16.924000)">
                    <g id="Rectangle" stroke-width="1" fill="none" fill-rule="evenodd" transform="translate(6.804000, 0.000000)">
                        <mask id="mask-5" fill="white">
                            <use xlink:href="#path-4"></use>
                        </mask>
                        <use id="Mask" fill="url(#linearGradient-3)" fill-rule="nonzero" xlink:href="#path-4"></use>
                        <path d="M56.5691865,64.3491776 L-0.89306653,59.3448274 C-3.20117656,59.1430773 -4.00644865,58.8183125 -4.82374511,58.3190702 C-5.71142631,57.7768336 -6.39622673,57.0295642 -6.85910684,56.0980384 C-7.28528493,55.2403738 -7.53869531,54.4098808 -7.53869531,52.0929702 L-7.53869531,11.9830923 C-7.53869531,9.66618167 -7.28528493,8.83568874 -6.85910684,7.9780241 C-6.39622673,7.04649825 -5.71142631,6.29922888 -4.82374511,5.75699233 C-4.00644865,5.25775001 -3.20117656,4.93298518 -0.89306653,4.73123508 L56.1054704,-0.250962627 C57.7098155,-0.391197182 59.2191187,0.132133592 60.3623942,1.09160928 C61.5160976,2.05983639 62.2970658,3.47220088 62.4268303,5.09500249 L62.4453047,58.5171776 C62.4453047,60.1276399 61.7925359,61.5856399 60.7371514,62.6410243 C59.672138,63.7060378 58.1971287,64.3610554 56.5691865,64.3491776 Z" fill="#4C4C4C" fill-rule="nonzero" mask="url(#mask-5)"></path>
                    </g>
                    <path d="M5.99557251,5.69954301 L62.9941095,0.717345295 C65.668018,0.483621037 68.02512,2.46178121 68.2588443,5.1356897 C68.2711454,5.27641943 68.2773047,5.41761859 68.2773047,5.55888491 L68.2773047,58.5171776 C68.2773047,61.2012815 66.1014086,63.3771776 63.4173047,63.3771776 C63.2760384,63.3771776 63.1348392,63.3710183 62.9941095,63.3587172 L5.99557251,58.3765195 C3.94416529,58.1972076 3.21597513,57.9349081 2.48694421,57.4895824 C1.75791328,57.0442568 1.1955034,56.4305426 0.815351252,55.6655032 C0.435199104,54.9004637 0.237304688,54.1521992 0.237304687,52.0929702 L0.237304687,11.9830923 C0.237304688,9.92386327 0.435199104,9.17559878 0.815351252,8.41055932 C1.1955034,7.64551986 1.75791328,7.03180574 2.48694421,6.58648008 C3.21597513,6.14115442 3.94416529,5.87885491 5.99557251,5.69954301 Z" id="Rectangle" fill="#FFFFFF" fill-rule="nonzero"></path>
                    <path d="M50.2983059,53.4599987 L63.18,53.946 C63.7160851,53.958756 64.1278924,54.5143425 64.0997974,55.1860614 L64.0402682,60.2468792 C64.0121732,60.9146104 63.5548148,61.4043253 63.0187298,61.3415641 L50.1965648,60.3661123 C49.6604797,60.3152224 49.2486724,59.8347181 49.2767674,59.292 L49.2767674,54.4490064 C49.3048624,53.9023007 49.7622208,53.4591153 50.2983059,53.4599987 Z" id="Rectangle" fill="#ECECEC" fill-rule="nonzero"></path>
                    <polygon id="Combined-Shape" fill="#C23A3A" fill-rule="nonzero" points="32.8692855 29.4087614 38.4902174 29.2199836 38.4902174 34.8845487 32.8692855 34.6734309 32.8692855 41.4422918 28.3167952 41.1408534 28.3167952 34.5084881 22.4635934 34.3043686 22.4635934 29.7415331 28.3167952 29.5570176 28.3167952 22.9314466 32.8692855 22.6399006"></polygon>
                </g>
            </g>
            <g id="Group-16-Copy" mask="url(#mask-2)" fill-rule="nonzero">
                <g transform="translate(21.910156, 17.912373) rotate(40.000000) translate(-21.910156, -17.912373) translate(17.910156, 5.512373)">
                    <path d="M4,0 C6.209139,-4.05812251e-16 8,1.790861 8,4 L8,20.8 C8,23.009139 6.209139,24.8 4,24.8 C1.790861,24.8 2.705415e-16,23.009139 0,20.8 L0,4 C-2.705415e-16,1.790861 1.790861,4.05812251e-16 4,0 Z M6.4,20 C6.1790861,20 6,20.1790861 6,20.4 C6,20.6209139 6.1790861,20.8 6.4,20.8 C6.6209139,20.8 6.8,20.6209139 6.8,20.4 C6.8,20.1790861 6.6209139,20 6.4,20 Z M4.8,20 C4.5790861,20 4.4,20.1790861 4.4,20.4 C4.4,20.6209139 4.5790861,20.8 4.8,20.8 C5.0209139,20.8 5.2,20.6209139 5.2,20.4 C5.2,20.1790861 5.0209139,20 4.8,20 Z M3.2,20 C2.9790861,20 2.8,20.1790861 2.8,20.4 C2.8,20.6209139 2.9790861,20.8 3.2,20.8 C3.4209139,20.8 3.6,20.6209139 3.6,20.4 C3.6,20.1790861 3.4209139,20 3.2,20 Z M1.6,20 C1.3790861,20 1.2,20.1790861 1.2,20.4 C1.2,20.6209139 1.3790861,20.8 1.6,20.8 C1.8209139,20.8 2,20.6209139 2,20.4 C2,20.1790861 1.8209139,20 1.6,20 Z M6.4,18.4 C6.1790861,18.4 6,18.5790861 6,18.8 C6,19.0209139 6.1790861,19.2 6.4,19.2 C6.6209139,19.2 6.8,19.0209139 6.8,18.8 C6.8,18.5790861 6.6209139,18.4 6.4,18.4 Z M4.8,18.4 C4.5790861,18.4 4.4,18.5790861 4.4,18.8 C4.4,19.0209139 4.5790861,19.2 4.8,19.2 C5.0209139,19.2 5.2,19.0209139 5.2,18.8 C5.2,18.5790861 5.0209139,18.4 4.8,18.4 Z M3.2,18.4 C2.9790861,18.4 2.8,18.5790861 2.8,18.8 C2.8,19.0209139 2.9790861,19.2 3.2,19.2 C3.4209139,19.2 3.6,19.0209139 3.6,18.8 C3.6,18.5790861 3.4209139,18.4 3.2,18.4 Z M1.6,18.4 C1.3790861,18.4 1.2,18.5790861 1.2,18.8 C1.2,19.0209139 1.3790861,19.2 1.6,19.2 C1.8209139,19.2 2,19.0209139 2,18.8 C2,18.5790861 1.8209139,18.4 1.6,18.4 Z M1.6,16.8 C1.3790861,16.8 1.2,16.9790861 1.2,17.2 C1.2,17.4209139 1.3790861,17.6 1.6,17.6 C1.8209139,17.6 2,17.4209139 2,17.2 C2,16.9790861 1.8209139,16.8 1.6,16.8 Z M4.8,16.8 C4.5790861,16.8 4.4,16.9790861 4.4,17.2 C4.4,17.4209139 4.5790861,17.6 4.8,17.6 C5.0209139,17.6 5.2,17.4209139 5.2,17.2 C5.2,16.9790861 5.0209139,16.8 4.8,16.8 Z M3.2,16.8 C2.9790861,16.8 2.8,16.9790861 2.8,17.2 C2.8,17.4209139 2.9790861,17.6 3.2,17.6 C3.4209139,17.6 3.6,17.4209139 3.6,17.2 C3.6,16.9790861 3.4209139,16.8 3.2,16.8 Z M6.4,16.8 C6.1790861,16.8 6,16.9790861 6,17.2 C6,17.4209139 6.1790861,17.6 6.4,17.6 C6.6209139,17.6 6.8,17.4209139 6.8,17.2 C6.8,16.9790861 6.6209139,16.8 6.4,16.8 Z M6.4,7.2 C6.1790861,7.2 6,7.3790861 6,7.6 C6,7.8209139 6.1790861,8 6.4,8 C6.6209139,8 6.8,7.8209139 6.8,7.6 C6.8,7.3790861 6.6209139,7.2 6.4,7.2 Z M4.8,7.2 C4.5790861,7.2 4.4,7.3790861 4.4,7.6 C4.4,7.8209139 4.5790861,8 4.8,8 C5.0209139,8 5.2,7.8209139 5.2,7.6 C5.2,7.3790861 5.0209139,7.2 4.8,7.2 Z M3.2,7.2 C2.9790861,7.2 2.8,7.3790861 2.8,7.6 C2.8,7.8209139 2.9790861,8 3.2,8 C3.4209139,8 3.6,7.8209139 3.6,7.6 C3.6,7.3790861 3.4209139,7.2 3.2,7.2 Z M1.6,7.2 C1.3790861,7.2 1.2,7.3790861 1.2,7.6 C1.2,7.8209139 1.3790861,8 1.6,8 C1.8209139,8 2,7.8209139 2,7.6 C2,7.3790861 1.8209139,7.2 1.6,7.2 Z M6.4,5.6 C6.1790861,5.6 6,5.7790861 6,6 C6,6.2209139 6.1790861,6.4 6.4,6.4 C6.6209139,6.4 6.8,6.2209139 6.8,6 C6.8,5.7790861 6.6209139,5.6 6.4,5.6 Z M4.8,5.6 C4.5790861,5.6 4.4,5.7790861 4.4,6 C4.4,6.2209139 4.5790861,6.4 4.8,6.4 C5.0209139,6.4 5.2,6.2209139 5.2,6 C5.2,5.7790861 5.0209139,5.6 4.8,5.6 Z M3.2,5.6 C2.9790861,5.6 2.8,5.7790861 2.8,6 C2.8,6.2209139 2.9790861,6.4 3.2,6.4 C3.4209139,6.4 3.6,6.2209139 3.6,6 C3.6,5.7790861 3.4209139,5.6 3.2,5.6 Z M1.6,5.6 C1.3790861,5.6 1.2,5.7790861 1.2,6 C1.2,6.2209139 1.3790861,6.4 1.6,6.4 C1.8209139,6.4 2,6.2209139 2,6 C2,5.7790861 1.8209139,5.6 1.6,5.6 Z M1.6,4 C1.3790861,4 1.2,4.1790861 1.2,4.4 C1.2,4.6209139 1.3790861,4.8 1.6,4.8 C1.8209139,4.8 2,4.6209139 2,4.4 C2,4.1790861 1.8209139,4 1.6,4 Z M4.8,4 C4.5790861,4 4.4,4.1790861 4.4,4.4 C4.4,4.6209139 4.5790861,4.8 4.8,4.8 C5.0209139,4.8 5.2,4.6209139 5.2,4.4 C5.2,4.1790861 5.0209139,4 4.8,4 Z M3.2,4 C2.9790861,4 2.8,4.1790861 2.8,4.4 C2.8,4.6209139 2.9790861,4.8 3.2,4.8 C3.4209139,4.8 3.6,4.6209139 3.6,4.4 C3.6,4.1790861 3.4209139,4 3.2,4 Z M6.4,4 C6.1790861,4 6,4.1790861 6,4.4 C6,4.6209139 6.1790861,4.8 6.4,4.8 C6.6209139,4.8 6.8,4.6209139 6.8,4.4 C6.8,4.1790861 6.6209139,4 6.4,4 Z" id="Combined-Shape" fill="#FFDDAA"></path>
                    <rect id="Rectangle" fill="#FFFFFF" x="0" y="9.2" width="8" height="6.4"></rect>
                </g>
            </g>
        </g>
    </g>
</svg>