<?xml version="1.0" encoding="UTF-8"?>
<svg width="84px" height="84px" viewBox="0 0 84 84" version="1.1" xmlns="http://www.w3.org/2000/svg" xmlns:xlink="http://www.w3.org/1999/xlink">
    <title>onco-logo</title>
    <defs>
        <linearGradient x1="50%" y1="0%" x2="50%" y2="96.0680547%" id="linearGradient-1">
            <stop stop-color="#FFBA00" offset="0%"/>
            <stop stop-color="#E98A00" offset="100%"/>
        </linearGradient>
    </defs>
    <g id="onco-logo" stroke="none" stroke-width="1" fill="none" fill-rule="evenodd">
        <g id="Group-8" transform="translate(4.000000, 14.000000)">
            <path d="M5.01708984,45.2098026 C5.01708984,46.081389 4.79919651,46.7588724 4.36340332,47.2422733 C3.92761013,47.7256742 3.31055087,47.967371 2.51220703,47.967371 C1.70409752,47.967371 1.08337619,47.7275052 0.650024414,47.2477665 C0.216672638,46.7680277 0,46.0862719 0,45.2024784 C0,44.3186849 0.217893329,43.6399807 0.653686523,43.1663456 C1.08947972,42.6927104 1.71142174,42.4558963 2.51953125,42.4558963 C3.31543367,42.4558963 3.93066189,42.6963725 4.36523438,43.1773319 C4.79980686,43.6582913 5.01708984,44.3357748 5.01708984,45.2098026 Z M0.930175781,45.2098026 C0.930175781,45.8689856 1.06323109,46.3688585 1.3293457,46.7094364 C1.59546031,47.0500143 1.98974348,47.2203006 2.51220703,47.2203006 C3.03222916,47.2203006 3.42468129,47.0518453 3.6895752,46.7149296 C3.9544691,46.3780138 4.08691406,45.8763098 4.08691406,45.2098026 C4.08691406,44.553061 3.95568979,44.0550191 3.6932373,43.715662 C3.43078482,43.3763048 3.03955338,43.2066288 2.51953125,43.2066288 C1.99462628,43.2066288 1.59851208,43.3763048 1.33117676,43.715662 C1.06384144,44.0550191 0.930175781,44.553061 0.930175781,45.2098026 Z M9.63867188,47.8941288 L8.77441406,47.8941288 L8.77441406,45.4038944 C8.77441406,45.0913928 8.71154848,44.8582409 8.58581543,44.7044315 C8.46008238,44.5506221 8.26049941,44.4737186 7.98706055,44.4737186 C7.6232892,44.4737186 7.35717858,44.5811394 7.1887207,44.7959842 C7.02026283,45.0108291 6.93603516,45.3709329 6.93603516,45.8763065 L6.93603516,47.8941288 L6.07543945,47.8941288 L6.07543945,43.8438358 L6.74926758,43.8438358 L6.87011719,44.3748417 L6.9140625,44.3748417 C7.03613342,44.1819696 7.20947153,44.0330453 7.43408203,43.9280643 C7.65869253,43.8230833 7.90771348,43.7705936 8.18115234,43.7705936 C9.15283689,43.7705936 9.63867188,44.2649734 9.63867188,45.2537479 L9.63867188,47.8941288 Z M12.4694824,47.967371 C11.8566864,47.967371 11.3909928,47.7885397 11.0723877,47.4308719 C10.7537826,47.0732041 10.5944824,46.5599036 10.5944824,45.8909549 C10.5944824,45.2097992 10.7611067,44.6861228 11.0943604,44.31991 C11.427614,43.9536973 11.9091765,43.7705936 12.5390625,43.7705936 C12.9663107,43.7705936 13.3508284,43.8499385 13.692627,44.0086307 L13.4326172,44.7007694 C13.0688458,44.5591671 12.7685559,44.4883671 12.5317383,44.4883671 C11.8310512,44.4883671 11.4807129,44.9534503 11.4807129,45.8836307 C11.4807129,46.3377346 11.5679923,46.6789177 11.7425537,46.9071903 C11.9171151,47.1354629 12.1728499,47.2495975 12.5097656,47.2495975 C12.8930683,47.2495975 13.2556135,47.1543836 13.5974121,46.963953 L13.5974121,47.7146854 C13.4436027,47.8050179 13.2794198,47.8697145 13.1048584,47.9087772 C12.930297,47.9478399 12.7185071,47.967371 12.4694824,47.967371 Z M18.1420898,45.8616581 C18.1420898,46.5232825 17.9724138,47.0396347 17.6330566,47.4107303 C17.2936995,47.7818259 16.8212921,47.967371 16.2158203,47.967371 C15.8374005,47.967371 15.5029311,47.8819226 15.2124023,47.7110233 C14.9218735,47.540124 14.6984871,47.2947651 14.5422363,46.9749393 C14.3859855,46.6551135 14.3078613,46.2840235 14.3078613,45.8616581 C14.3078613,45.2049165 14.4763167,44.6922263 14.8132324,44.3235721 C15.1501482,43.9549179 15.6249969,43.7705936 16.237793,43.7705936 C16.8237334,43.7705936 17.2875959,43.9591904 17.6293945,44.3363895 C17.9711931,44.7135887 18.1420898,45.2220064 18.1420898,45.8616581 Z M15.1940918,45.8616581 C15.1940918,46.7967213 15.5395473,47.264246 16.2304688,47.264246 C16.9140659,47.264246 17.2558594,46.7967213 17.2558594,45.8616581 C17.2558594,44.9363605 16.9116245,44.4737186 16.2231445,44.4737186 C15.8618146,44.4737186 15.5999764,44.5933463 15.4376221,44.8326053 C15.2752677,45.0718643 15.1940918,45.4148785 15.1940918,45.8616581 Z M19.9914551,47.8941288 L19.1308594,47.8941288 L19.1308594,42.1958866 L19.9914551,42.1958866 L19.9914551,47.8941288 Z M24.8144531,45.8616581 C24.8144531,46.5232825 24.6447771,47.0396347 24.3054199,47.4107303 C23.9660628,47.7818259 23.4936554,47.967371 22.8881836,47.967371 C22.5097637,47.967371 22.1752944,47.8819226 21.8847656,47.7110233 C21.5942368,47.540124 21.3708504,47.2947651 21.2145996,46.9749393 C21.0583488,46.6551135 20.9802246,46.2840235 20.9802246,45.8616581 C20.9802246,45.2049165 21.14868,44.6922263 21.4855957,44.3235721 C21.8225115,43.9549179 22.2973602,43.7705936 22.9101562,43.7705936 C23.4960967,43.7705936 23.9599592,43.9591904 24.3017578,44.3363895 C24.6435564,44.7135887 24.8144531,45.2220064 24.8144531,45.8616581 Z M21.8664551,45.8616581 C21.8664551,46.7967213 22.2119106,47.264246 22.902832,47.264246 C23.5864292,47.264246 23.9282227,46.7967213 23.9282227,45.8616581 C23.9282227,44.9363605 23.5839878,44.4737186 22.8955078,44.4737186 C22.5341779,44.4737186 22.2723397,44.5933463 22.1099854,44.8326053 C21.947631,45.0718643 21.8664551,45.4148785 21.8664551,45.8616581 Z M29.2236328,43.8438358 L29.2236328,44.3162479 L28.5314941,44.4444217 C28.594971,44.5298714 28.6474607,44.6348508 28.6889648,44.7593631 C28.730469,44.8838755 28.7512207,45.0157101 28.7512207,45.154871 C28.7512207,45.5723535 28.6071792,45.9007194 28.3190918,46.1399784 C28.0310044,46.3792374 27.6342799,46.4988651 27.1289062,46.4988651 C26.9995111,46.4988651 26.8823247,46.4890996 26.7773438,46.4695682 C26.5917959,46.5843149 26.4990234,46.7185909 26.4990234,46.8724003 C26.4990234,46.9651742 26.542358,47.0347535 26.6290283,47.0811405 C26.7156987,47.1275274 26.8749988,47.1507206 27.1069336,47.1507206 L27.8137207,47.1507206 C28.2605003,47.1507206 28.5998524,47.2459345 28.8317871,47.4363651 C29.0637219,47.6267957 29.1796875,47.9014512 29.1796875,48.2603397 C29.1796875,48.7193264 28.9904804,49.0733267 28.6120605,49.3223514 C28.2336407,49.5713761 27.6867712,49.6958866 26.9714355,49.6958866 C26.419675,49.6958866 25.9985366,49.5982313 25.7080078,49.4029178 C25.417479,49.2076044 25.2722168,48.9292868 25.2722168,48.5679569 C25.2722168,48.3189322 25.3509514,48.1095837 25.5084229,47.9399051 C25.6658943,47.7702266 25.8862291,47.6524299 26.1694336,47.5865116 C26.0546869,47.5376832 25.9600834,47.4589486 25.8856201,47.3503055 C25.8111569,47.2416624 25.7739258,47.1275278 25.7739258,47.0078983 C25.7739258,46.8565304 25.81665,46.7283578 25.9020996,46.6233768 C25.9875493,46.5183958 26.1145011,46.4146371 26.282959,46.3120975 C26.072997,46.221765 25.9027106,46.0746718 25.7720947,45.8708133 C25.6414788,45.6669549 25.5761719,45.4283098 25.5761719,45.154871 C25.5761719,44.7154156 25.7147203,44.3748429 25.9918213,44.1331424 C26.2689223,43.891442 26.6638158,43.7705936 27.1765137,43.7705936 C27.2912603,43.7705936 27.4114984,43.7785281 27.5372314,43.7943973 C27.6629645,43.8102665 27.757568,43.8267459 27.8210449,43.8438358 L29.2236328,43.8438358 Z M26.0412598,48.5240116 C26.0412598,48.7095594 26.1248771,48.8523802 26.2921143,48.9524784 C26.4593514,49.0525765 26.6943344,49.1026249 26.9970703,49.1026249 C27.4658227,49.1026249 27.8149403,49.0354869 28.0444336,48.9012088 C28.2739269,48.7669308 28.3886719,48.58871 28.3886719,48.3665409 C28.3886719,48.1907587 28.3258063,48.0656379 28.2000732,47.9911747 C28.0743402,47.9167114 27.8405779,47.8794803 27.4987793,47.8794803 L26.8469238,47.8794803 C26.6003406,47.8794803 26.4044197,47.9374631 26.2591553,48.0534305 C26.1138909,48.1693979 26.0412598,48.3262567 26.0412598,48.5240116 Z M26.4111328,45.154871 C26.4111328,45.4087785 26.4764398,45.604089 26.6070557,45.7408085 C26.7376716,45.8775279 26.9250476,45.9458866 27.1691895,45.9458866 C27.6672388,45.9458866 27.9162598,45.679776 27.9162598,45.1475467 C27.9162598,44.8838735 27.8546149,44.6806285 27.7313232,44.5378055 C27.6080316,44.3949825 27.4206556,44.3235721 27.1691895,44.3235721 C26.9201648,44.3235721 26.731568,44.3943722 26.6033936,44.5359745 C26.4752191,44.6775767 26.4111328,44.8838735 26.4111328,45.154871 Z M30.8349609,47.8941288 L29.9743652,47.8941288 L29.9743652,43.8438358 L30.8349609,43.8438358 L30.8349609,47.8941288 Z M29.9304199,43.349451 L29.9304199,43.2578983 C30.0695808,43.086999 30.213012,42.8965712 30.3607178,42.6866092 C30.5084236,42.4766473 30.6249996,42.2972057 30.7104492,42.1482792 L31.7102051,42.1482792 L31.7102051,42.2251835 C31.5832513,42.37411 31.3934339,42.5663688 31.1407471,42.8019657 C30.8880603,43.0375626 30.6750497,43.2200559 30.501709,43.349451 L29.9304199,43.349451 Z M34.5996094,47.8941288 L34.4274902,47.3301639 L34.3981934,47.3301639 C34.2028799,47.5767472 34.0063486,47.7445922 33.8085938,47.833704 C33.6108389,47.9228157 33.3569351,47.967371 33.046875,47.967371 C32.6489238,47.967371 32.338258,47.8599502 32.1148682,47.6451053 C31.8914784,47.4302605 31.7797852,47.1263085 31.7797852,46.7332401 C31.7797852,46.3157575 31.9348129,46.0008193 32.244873,45.7884159 C32.5549332,45.5760125 33.0273406,45.4600468 33.6621094,45.4405155 L34.3615723,45.4185428 L34.3615723,45.2024784 C34.3615723,44.943688 34.3011481,44.7502085 34.1802979,44.622034 C34.0594476,44.4938596 33.8720716,44.4297733 33.6181641,44.4297733 C33.4106435,44.4297733 33.2116709,44.4602906 33.0212402,44.521326 C32.8308096,44.5823615 32.647706,44.6543823 32.4719238,44.7373905 L32.1936035,44.1221561 C32.4133312,44.0074094 32.6538073,43.92013 32.9150391,43.8603153 C33.1762708,43.8005005 33.4228504,43.7705936 33.6547852,43.7705936 C34.1699245,43.7705936 34.5587145,43.8828972 34.821167,44.1075077 C35.0836195,44.3321182 35.2148438,44.6848978 35.2148438,45.1658573 L35.2148438,47.8941288 L34.5996094,47.8941288 Z M33.3178711,47.3081913 C33.6303727,47.3081913 33.8812246,47.2209119 34.0704346,47.0463504 C34.2596445,46.871789 34.354248,46.6270405 34.354248,46.3120975 L34.354248,45.960535 L33.8342285,45.9825077 C33.4289531,45.9971562 33.1341562,46.0649045 32.9498291,46.1857547 C32.765502,46.306605 32.6733398,46.4915396 32.6733398,46.7405643 C32.6733398,46.9212293 32.7270502,47.0609984 32.8344727,47.1598758 C32.9418951,47.2587533 33.1030263,47.3081913 33.3178711,47.3081913 Z M38.4558105,47.8941288 L38.4558105,42.5401249 L39.3310547,42.5401249 L39.3310547,47.8941288 L38.4558105,47.8941288 Z M44.2163086,47.8941288 L43.3520508,47.8941288 L43.3520508,45.4038944 C43.3520508,45.0913928 43.2891852,44.8582409 43.1634521,44.7044315 C43.0377191,44.5506221 42.8381361,44.4737186 42.5646973,44.4737186 C42.2009259,44.4737186 41.9348153,44.5811394 41.7663574,44.7959842 C41.5978995,45.0108291 41.5136719,45.3709329 41.5136719,45.8763065 L41.5136719,47.8941288 L40.6530762,47.8941288 L40.6530762,43.8438358 L41.3269043,43.8438358 L41.4477539,44.3748417 L41.4916992,44.3748417 C41.6137701,44.1819696 41.7871083,44.0330453 42.0117188,43.9280643 C42.2363292,43.8230833 42.4853502,43.7705936 42.7587891,43.7705936 C43.7304736,43.7705936 44.2163086,44.2649734 44.2163086,45.2537479 L44.2163086,47.8941288 Z M47.4462891,44.4956913 L46.4575195,44.4956913 L46.4575195,47.8941288 L45.5932617,47.8941288 L45.5932617,44.4956913 L44.9267578,44.4956913 L44.9267578,44.0928592 L45.5932617,43.8291874 L45.5932617,43.5655155 C45.5932617,43.0869975 45.7055653,42.7323868 45.9301758,42.5016727 C46.1547863,42.2709587 46.4978004,42.1556034 46.9592285,42.1556034 C47.2619644,42.1556034 47.559813,42.2056517 47.8527832,42.3057499 L47.6257324,42.9576053 C47.413329,42.8892456 47.2106943,42.8550663 47.0178223,42.8550663 C46.8225088,42.8550663 46.6802983,42.9154905 46.5911865,43.0363407 C46.5020747,43.1571909 46.4575195,43.3384635 46.4575195,43.5801639 L46.4575195,43.8438358 L47.4462891,43.8438358 L47.4462891,44.4956913 Z M50.6689453,47.8941288 L50.4968262,47.3301639 L50.4675293,47.3301639 C50.2722158,47.5767472 50.0756846,47.7445922 49.8779297,47.833704 C49.6801748,47.9228157 49.4262711,47.967371 49.1162109,47.967371 C48.7182597,47.967371 48.4075939,47.8599502 48.1842041,47.6451053 C47.9608143,47.4302605 47.8491211,47.1263085 47.8491211,46.7332401 C47.8491211,46.3157575 48.0041488,46.0008193 48.314209,45.7884159 C48.6242691,45.5760125 49.0966765,45.4600468 49.7314453,45.4405155 L50.4309082,45.4185428 L50.4309082,45.2024784 C50.4309082,44.943688 50.370484,44.7502085 50.2496338,44.622034 C50.1287836,44.4938596 49.9414075,44.4297733 49.6875,44.4297733 C49.4799794,44.4297733 49.2810068,44.4602906 49.0905762,44.521326 C48.9001455,44.5823615 48.7170419,44.6543823 48.5412598,44.7373905 L48.2629395,44.1221561 C48.4826671,44.0074094 48.7231432,43.92013 48.984375,43.8603153 C49.2456068,43.8005005 49.4921863,43.7705936 49.7241211,43.7705936 C50.2392604,43.7705936 50.6280504,43.8828972 50.8905029,44.1075077 C51.1529554,44.3321182 51.2841797,44.6848978 51.2841797,45.1658573 L51.2841797,47.8941288 L50.6689453,47.8941288 Z M49.387207,47.3081913 C49.6997086,47.3081913 49.9505606,47.2209119 50.1397705,47.0463504 C50.3289804,46.871789 50.423584,46.6270405 50.423584,46.3120975 L50.423584,45.960535 L49.9035645,45.9825077 C49.498289,45.9971562 49.2034921,46.0649045 49.019165,46.1857547 C48.8348379,46.306605 48.7426758,46.4915396 48.7426758,46.7405643 C48.7426758,46.9212293 48.7963862,47.0609984 48.9038086,47.1598758 C49.011231,47.2587533 49.1723622,47.3081913 49.387207,47.3081913 Z M56.048584,47.8941288 L55.1843262,47.8941288 L55.1843262,45.4038944 C55.1843262,45.0913928 55.1214606,44.8582409 54.9957275,44.7044315 C54.8699945,44.5506221 54.6704115,44.4737186 54.3969727,44.4737186 C54.0332013,44.4737186 53.7670907,44.5811394 53.5986328,44.7959842 C53.4301749,45.0108291 53.3459473,45.3709329 53.3459473,45.8763065 L53.3459473,47.8941288 L52.4853516,47.8941288 L52.4853516,43.8438358 L53.1591797,43.8438358 L53.2800293,44.3748417 L53.3239746,44.3748417 C53.4460455,44.1819696 53.6193836,44.0330453 53.8439941,43.9280643 C54.0686046,43.8230833 54.3176256,43.7705936 54.5910645,43.7705936 C55.562749,43.7705936 56.048584,44.2649734 56.048584,45.2537479 L56.048584,47.8941288 Z M58.7548828,47.2715702 C58.9648448,47.2715702 59.1748036,47.2386115 59.3847656,47.1726932 L59.3847656,47.8208866 C59.2895503,47.8623907 59.1668709,47.8971804 59.0167236,47.9252567 C58.8665764,47.953333 58.7109383,47.967371 58.5498047,47.967371 C57.7343709,47.967371 57.3266602,47.5376878 57.3266602,46.6783085 L57.3266602,44.4956913 L56.7736816,44.4956913 L56.7736816,44.1148319 L57.3669434,43.7998905 L57.6599121,42.9429569 L58.190918,42.9429569 L58.190918,43.8438358 L59.3444824,43.8438358 L59.3444824,44.4956913 L58.190918,44.4956913 L58.190918,46.66366 C58.190918,46.8711806 58.2427973,47.0243773 58.3465576,47.1232547 C58.4503179,47.2221322 58.5864249,47.2715702 58.7548828,47.2715702 Z M61.0546875,47.8941288 L60.1940918,47.8941288 L60.1940918,43.8438358 L61.0546875,43.8438358 L61.0546875,47.8941288 Z M60.1428223,42.7708378 C60.1428223,42.6170284 60.1849361,42.4986214 60.269165,42.4156131 C60.353394,42.3326049 60.473632,42.2911014 60.6298828,42.2911014 C60.7812508,42.2911014 60.8990474,42.3326049 60.9832764,42.4156131 C61.0675053,42.4986214 61.1096191,42.6170284 61.1096191,42.7708378 C61.1096191,42.9173229 61.0675053,43.0326782 60.9832764,43.1169071 C60.8990474,43.201136 60.7812508,43.2432499 60.6298828,43.2432499 C60.473632,43.2432499 60.353394,43.201136 60.269165,43.1169071 C60.1849361,43.0326782 60.1428223,42.9173229 60.1428223,42.7708378 Z M63.145752,47.8941288 L62.2851562,47.8941288 L62.2851562,42.1958866 L63.145752,42.1958866 L63.145752,47.8941288 Z M70.612793,42.5401249 L70.612793,46.0044803 C70.612793,46.3999901 70.5279549,46.746056 70.3582764,47.0426883 C70.1885978,47.3393207 69.9432389,47.5675899 69.6221924,47.7275028 C69.3011459,47.8874157 68.9172386,47.967371 68.470459,47.967371 C67.8063932,47.967371 67.2900409,47.7915915 66.9213867,47.4400272 C66.5527325,47.0884629 66.3684082,46.6050693 66.3684082,45.9898319 L66.3684082,42.5401249 L67.2473145,42.5401249 L67.2473145,45.927576 C67.2473145,46.3694728 67.3498525,46.6953973 67.5549316,46.9053592 C67.7600108,47.1153212 68.074949,47.2203006 68.4997559,47.2203006 C69.3249553,47.2203006 69.7375488,46.7869554 69.7375488,45.9202518 L69.7375488,42.5401249 L70.612793,42.5401249 Z M74.2602539,43.213953 C73.7573217,43.213953 73.3618178,43.3921739 73.0737305,43.748621 C72.7856431,44.1050681 72.6416016,44.5970065 72.6416016,45.224451 C72.6416016,45.8811926 72.78015,46.3780138 73.057251,46.7149296 C73.334352,47.0518453 73.7353489,47.2203006 74.2602539,47.2203006 C74.4873058,47.2203006 74.7070302,47.1977179 74.9194336,47.1525516 C75.131837,47.1073854 75.3527821,47.0494026 75.5822754,46.9786014 L75.5822754,47.7293338 C75.1623514,47.888026 74.686282,47.967371 74.1540527,47.967371 C73.3703574,47.967371 72.7685568,47.7299466 72.3486328,47.2550907 C71.9287088,46.7802348 71.71875,46.1009203 71.71875,45.2171268 C71.71875,44.6604834 71.8206777,44.1734277 72.0245361,43.7559452 C72.2283946,43.3384626 72.5231914,43.0186416 72.9089355,42.7964725 C73.2946797,42.5743034 73.747556,42.4632206 74.2675781,42.4632206 C74.8144559,42.4632206 75.3198219,42.5779655 75.7836914,42.8074588 L75.46875,43.5362186 C75.288085,43.450769 75.0970469,43.3756965 74.8956299,43.3109989 C74.6942129,43.2463013 74.482423,43.213953 74.2602539,43.213953 Z" id="OncologíaInfantilUC-Copy-2" fill="#5F5F5F" fill-rule="nonzero"/>
            <path d="M1.05590808,53.7613163 L1.05590808,55.3941288 L0.599365115,55.3941288 L0.599365115,51.4678592 L1.67626941,51.4678592 C2.15787989,51.4678592 2.5137113,51.5600621 2.74377429,51.7444706 C2.97383729,51.928879 3.08886707,52.2063828 3.08886707,52.5769901 C3.08886707,53.0961984 2.82568611,53.4471064 2.29931629,53.6297245 L3.3654784,55.3941288 L2.82568347,55.3941288 L1.87499988,53.7613163 L1.05590808,53.7613163 Z M1.05590808,53.3692264 L1.68164051,53.3692264 C2.00390774,53.3692264 2.2402335,53.3052215 2.39062488,53.1772098 C2.54101626,53.0491981 2.61621082,52.8571834 2.61621082,52.60116 C2.61621082,52.3415559 2.5396735,52.1544646 2.38659656,52.0398807 C2.23351962,51.9252968 1.98779454,51.8680057 1.64941394,51.8680057 L1.05590808,51.8680057 L1.05590808,53.3692264 Z M6.100537,55.4478397 C5.66547623,55.4478397 5.32217726,55.3153541 5.07062978,55.0503788 C4.81908229,54.7854035 4.69331044,54.4174872 4.69331044,53.946619 C4.69331044,53.47217 4.81013056,53.095302 5.04377431,52.8160038 C5.27741805,52.5367055 5.59117631,52.3970585 5.98505849,52.3970585 C6.35387543,52.3970585 6.64570194,52.5183544 6.86054677,52.7609501 C7.07539159,53.0035457 7.18281239,53.3235701 7.18281239,53.7210331 L7.18281239,54.0030155 L5.1552245,54.0030155 C5.16417637,54.3485576 5.25145577,54.6108434 5.41706532,54.7898807 C5.58267487,54.9689181 5.81586753,55.0584354 6.11665028,55.0584354 C6.4335464,55.0584354 6.74685707,54.9921926 7.05659169,54.8597049 L7.05659169,55.2571659 C6.89903882,55.3252001 6.74999246,55.373987 6.60944813,55.4035282 C6.46890381,55.4330693 6.29926846,55.4478397 6.100537,55.4478397 Z M5.97968739,52.7703495 C5.74335809,52.7703495 5.5549241,52.8473344 5.41437978,53.0013065 C5.27383545,53.1552786 5.19103192,53.3683299 5.16596669,53.6404667 L6.70478505,53.6404667 C6.70478505,53.359378 6.64212292,53.1440888 6.51679677,52.9945926 C6.39147062,52.8450964 6.21243595,52.7703495 5.97968739,52.7703495 Z M10.8712401,54.9993534 L10.8470702,54.9993534 C10.6411773,55.2983458 10.3332376,55.4478397 9.92324209,55.4478397 C9.53831178,55.4478397 9.2388763,55.3162492 9.02492666,55.0530643 C8.81097702,54.7898794 8.70400381,54.4156969 8.70400381,53.9305057 C8.70400381,53.4453145 8.81142461,53.0684465 9.02626944,52.7998905 C9.24111426,52.5313345 9.54010216,52.3970585 9.92324209,52.3970585 C10.3224954,52.3970585 10.6286447,52.5420765 10.8416991,52.8321171 L10.8766112,52.8321171 L10.8578124,52.6199588 L10.8470702,52.4131717 L10.8470702,51.2154178 L11.292871,51.2154178 L11.292871,55.3941288 L10.9303222,55.3941288 L10.8712401,54.9993534 Z M9.97963858,55.0745487 C10.2840021,55.0745487 10.5046623,54.9917452 10.6416259,54.8261356 C10.7785895,54.6605261 10.8470702,54.3933168 10.8470702,54.0244999 L10.8470702,53.9305057 C10.8470702,53.5133487 10.7776943,53.2157036 10.6389403,53.0375614 C10.5001864,52.8594192 10.278631,52.7703495 9.97426748,52.7703495 C9.71287295,52.7703495 9.51280171,52.8719516 9.37404776,53.075159 C9.23529381,53.2783664 9.16591787,53.5652695 9.16591787,53.9358768 C9.16591787,54.3118553 9.23484622,54.5956252 9.37270498,54.7871952 C9.51056374,54.9787651 9.71287292,55.0745487 9.97963858,55.0745487 Z M17.7996093,54.349451 C17.7996093,54.6949931 17.674285,54.9644403 17.4236327,55.1578006 C17.1729804,55.351161 16.8328146,55.4478397 16.4031249,55.4478397 C15.9376278,55.4478397 15.5795585,55.3878631 15.3289062,55.2679081 L15.3289062,54.8274784 C15.4900398,54.8955126 15.6654938,54.949223 15.8552734,54.9886112 C16.045053,55.0279994 16.2330394,55.0476932 16.4192382,55.0476932 C16.7236017,55.0476932 16.9527661,54.9899545 17.1067382,54.8744754 C17.2607103,54.7589964 17.3376952,54.5983127 17.3376952,54.3924198 C17.3376952,54.2563514 17.3103925,54.1449023 17.2557861,54.0580692 C17.2011797,53.9712361 17.109872,53.8911181 16.9818603,53.8177128 C16.8538486,53.7443074 16.6591484,53.6610563 16.3977538,53.5679569 C16.0325176,53.4372596 15.7715746,53.2823946 15.6149169,53.1033573 C15.4582592,52.9243199 15.3799316,52.6906797 15.3799316,52.4024296 C15.3799316,52.0998564 15.4936186,51.8590548 15.720996,51.6800174 C15.9483735,51.5009801 16.2491517,51.4114628 16.6233398,51.4114628 C17.0136412,51.4114628 17.3726057,51.4830766 17.7002441,51.6263065 L17.5579101,52.0237674 C17.2338525,51.8876991 16.9187515,51.8196659 16.6125976,51.8196659 C16.3708972,51.8196659 16.1820156,51.8715859 16.0459472,51.9754276 C15.9098788,52.0792693 15.8418456,52.2233922 15.8418456,52.4078006 C15.8418456,52.543869 15.8669105,52.6553181 15.9170409,52.7421512 C15.9671714,52.8289843 16.0517653,52.9086548 16.1708251,52.9811649 C16.289885,53.053675 16.4720527,53.133793 16.7173339,53.2215213 C17.1291198,53.368332 17.4124422,53.5258825 17.5673095,53.6941776 C17.7221768,53.8624727 17.7996093,54.080895 17.7996093,54.349451 Z M21.2705078,55.3941288 L21.1818847,54.9751835 L21.1604003,54.9751835 C21.0135897,55.1595919 20.8672289,55.2844686 20.7213134,55.3498172 C20.575398,55.4151659 20.3932302,55.4478397 20.1748046,55.4478397 C19.8829737,55.4478397 19.654257,55.3726451 19.4886474,55.2222538 C19.3230378,55.0718624 19.2402343,54.857916 19.2402343,54.5804081 C19.2402343,53.9860041 19.7155714,53.6744837 20.6662597,53.6458378 L21.1657714,53.6297245 L21.1657714,53.4471073 C21.1657714,53.2161491 21.1160893,53.0456186 21.0167236,52.9355106 C20.9173578,52.8254026 20.7584646,52.7703495 20.540039,52.7703495 C20.2947578,52.7703495 20.0172541,52.845544 19.7075195,52.9959354 L19.5705566,52.654871 C19.7155768,52.5760945 19.8744701,52.5143276 20.0472412,52.4695682 C20.2200122,52.4248089 20.3932282,52.4024296 20.5668945,52.4024296 C20.9178077,52.4024296 21.1778555,52.4803096 21.3470458,52.6360721 C21.5162361,52.7918346 21.60083,53.041588 21.60083,53.3853397 L21.60083,55.3941288 L21.2705078,55.3941288 Z M20.2634277,55.0799198 C20.5409356,55.0799198 20.7589103,55.0038301 20.9173583,54.8516483 C21.0758064,54.6994665 21.1550292,54.4864153 21.1550292,54.2124881 L21.1550292,53.946619 L20.7092285,53.9654178 C20.3547345,53.9779504 20.0991625,54.0330036 19.9425048,54.130579 C19.7858471,54.2281543 19.7075195,54.3798862 19.7075195,54.5857792 C19.7075195,54.7469128 19.7563064,54.8695515 19.8538818,54.9536991 C19.9514571,55.0378466 20.0879711,55.0799198 20.2634277,55.0799198 Z M23.8900878,55.3941288 L23.4442871,55.3941288 L23.4442871,51.2154178 L23.8900878,51.2154178 L23.8900878,55.3941288 Z M26.1793457,52.4507694 L26.1793457,54.3601932 C26.1793457,54.6001033 26.2339512,54.7791379 26.343164,54.8973026 C26.4523768,55.0154673 26.6233549,55.0745487 26.8561035,55.0745487 C27.1640477,55.0745487 27.3891838,54.9904024 27.5315185,54.8221073 C27.6738532,54.6538122 27.7450195,54.378994 27.7450195,53.9976444 L27.7450195,52.4507694 L28.1908203,52.4507694 L28.1908203,55.3941288 L27.8229004,55.3941288 L27.7584472,54.9993534 L27.7342773,54.9993534 C27.6429683,55.1443736 27.5163012,55.2553751 27.3542724,55.3323612 C27.1922436,55.4093473 27.0073903,55.4478397 26.799707,55.4478397 C26.4416323,55.4478397 26.1735279,55.3627982 25.9953857,55.1927128 C25.8172435,55.0226273 25.7281738,54.7504946 25.7281738,54.3763065 L25.7281738,52.4507694 L26.1793457,52.4507694 Z M32.0645508,54.9993534 L32.0403808,54.9993534 C31.8344879,55.2983458 31.5265483,55.4478397 31.1165527,55.4478397 C30.7316224,55.4478397 30.4321869,55.3162492 30.2182373,55.0530643 C30.0042876,54.7898794 29.8973144,54.4156969 29.8973144,53.9305057 C29.8973144,53.4453145 30.0047352,53.0684465 30.2195801,52.7998905 C30.4344249,52.5313345 30.7334128,52.3970585 31.1165527,52.3970585 C31.515806,52.3970585 31.8219553,52.5420765 32.0350097,52.8321171 L32.0699219,52.8321171 L32.051123,52.6199588 L32.0403808,52.4131717 L32.0403808,51.2154178 L32.4861816,51.2154178 L32.4861816,55.3941288 L32.1236328,55.3941288 L32.0645508,54.9993534 Z M31.1729492,55.0745487 C31.4773127,55.0745487 31.6979729,54.9917452 31.8349365,54.8261356 C31.9719001,54.6605261 32.0403808,54.3933168 32.0403808,54.0244999 L32.0403808,53.9305057 C32.0403808,53.5133487 31.9710049,53.2157036 31.832251,53.0375614 C31.693497,52.8594192 31.4719416,52.7703495 31.1675781,52.7703495 C30.9061836,52.7703495 30.7061123,52.8719516 30.5673584,53.075159 C30.4286044,53.2783664 30.3592285,53.5652695 30.3592285,53.9358768 C30.3592285,54.3118553 30.4281568,54.5956252 30.5660156,54.7871952 C30.7038744,54.9787651 30.9061835,55.0745487 31.1729492,55.0745487 Z M39.7421875,51.4678592 L39.7421875,54.0083866 C39.7421875,54.45598 39.6070163,54.8077831 39.3366699,55.0638065 C39.0663235,55.3198299 38.6948266,55.4478397 38.222168,55.4478397 C37.7495094,55.4478397 37.383831,55.3189347 37.1251221,55.061121 C36.8664131,54.8033072 36.7370605,54.4488185 36.7370605,53.9976444 L36.7370605,51.4678592 L37.1936035,51.4678592 L37.1936035,54.029871 C37.1936035,54.3575093 37.2831208,54.609053 37.4621582,54.7845096 C37.6411956,54.9599662 37.9043765,55.0476932 38.251709,55.0476932 C38.5829281,55.0476932 38.8380525,54.9595186 39.0170898,54.7831669 C39.1961272,54.6068151 39.2856445,54.3539286 39.2856445,54.0244999 L39.2856445,51.4678592 L39.7421875,51.4678592 Z M43.3876465,51.8196659 C42.9561665,51.8196659 42.615553,51.9633412 42.3657959,52.2506962 C42.1160388,52.5380511 41.9911621,52.9314798 41.9911621,53.430994 C41.9911621,53.9448312 42.1115629,54.3418406 42.3523682,54.622034 C42.5931734,54.9022275 42.9364724,55.0423221 43.3822754,55.0423221 C43.6562026,55.0423221 43.968618,54.9930876 44.3195313,54.8946171 L44.3195313,55.2947635 C44.0473945,55.3968148 43.7117045,55.4478397 43.3124512,55.4478397 C42.7341605,55.4478397 42.2879166,55.2723857 41.9737061,54.9214725 C41.6594955,54.5705593 41.5023926,54.0719478 41.5023926,53.4256229 C41.5023926,53.0209985 41.5780347,52.6665098 41.7293213,52.3621463 C41.8806079,52.0577828 42.0990302,51.8232474 42.3845947,51.6585331 C42.6701593,51.4938187 43.0062969,51.4114628 43.3930176,51.4114628 C43.8048035,51.4114628 44.1646632,51.4866573 44.4726074,51.6370487 L44.2792481,52.0291385 C43.9820461,51.8894894 43.6848485,51.8196659 43.3876465,51.8196659 Z M50.136084,51.8196659 C49.704604,51.8196659 49.3639905,51.9633412 49.1142334,52.2506962 C48.8644763,52.5380511 48.7395996,52.9314798 48.7395996,53.430994 C48.7395996,53.9448312 48.8600005,54.3418406 49.1008057,54.622034 C49.3416109,54.9022275 49.6849099,55.0423221 50.1307129,55.0423221 C50.4046401,55.0423221 50.7170556,54.9930876 51.0679688,54.8946171 L51.0679688,55.2947635 C50.795832,55.3968148 50.460142,55.4478397 50.0608887,55.4478397 C49.4825981,55.4478397 49.0363541,55.2723857 48.7221436,54.9214725 C48.407933,54.5705593 48.2508301,54.0719478 48.2508301,53.4256229 C48.2508301,53.0209985 48.3264723,52.6665098 48.4777588,52.3621463 C48.6290454,52.0577828 48.8474677,51.8232474 49.1330323,51.6585331 C49.4185968,51.4938187 49.7547344,51.4114628 50.1414551,51.4114628 C50.553241,51.4114628 50.9131007,51.4866573 51.221045,51.6370487 L51.0276856,52.0291385 C50.7304836,51.8894894 50.433286,51.8196659 50.136084,51.8196659 Z M54.7966797,55.3941288 L54.7966797,53.490076 C54.7966797,53.250166 54.7420742,53.0711313 54.6328614,52.9529667 C54.5236486,52.834802 54.3526705,52.7757206 54.1199219,52.7757206 C53.8101873,52.7757206 53.584156,52.8598669 53.4418213,53.028162 C53.2994866,53.1964571 53.2283204,53.4721705 53.2283204,53.8553104 L53.2283204,55.3941288 L52.7825196,55.3941288 L52.7825196,51.2154178 L53.2283204,51.2154178 L53.2283204,52.4803104 C53.2283204,52.6324922 53.221159,52.7587116 53.206836,52.8589725 L53.2336915,52.8589725 C53.3214198,52.717533 53.4462964,52.6060839 53.6083252,52.5246219 C53.770354,52.4431599 53.9552073,52.4024296 54.1628907,52.4024296 C54.5227558,52.4024296 54.7926505,52.4879186 54.9725831,52.6588993 C55.1525156,52.8298799 55.2424805,53.1015651 55.2424805,53.4739628 L55.2424805,55.3941288 L54.7966797,55.3941288 Z M58.4260255,52.3970585 C58.5567227,52.3970585 58.6739904,52.4078005 58.7778321,52.429285 L58.7160645,52.8428592 C58.5943191,52.8160036 58.4868983,52.802576 58.3937989,52.802576 C58.1556792,52.802576 57.9520273,52.8992548 57.782837,53.0926151 C57.6136467,53.2859754 57.5290528,53.5267771 57.5290528,53.8150272 L57.5290528,55.3941288 L57.083252,55.3941288 L57.083252,52.4507694 L57.4511719,52.4507694 L57.5021973,52.9959354 L57.5236817,52.9959354 C57.6328945,52.8043654 57.764485,52.6566618 57.9184571,52.5528202 C58.0724292,52.4489785 58.241617,52.3970585 58.4260255,52.3970585 Z M60.69917,55.3941288 L60.2533692,55.3941288 L60.2533692,52.4507694 L60.69917,52.4507694 L60.69917,55.3941288 Z M60.2157716,51.653162 C60.2157716,51.5511107 60.2408364,51.4763637 60.2909669,51.4289188 C60.3410973,51.3814739 60.4037595,51.3577518 60.4789551,51.3577518 C60.5505701,51.3577518 60.6123371,51.3819215 60.6642579,51.4302616 C60.7161787,51.4786017 60.7421387,51.5529011 60.7421387,51.653162 C60.7421387,51.7534229 60.7161787,51.8281699 60.6642579,51.8774051 C60.6123371,51.9266404 60.5505701,51.9512577 60.4789551,51.9512577 C60.4037595,51.9512577 60.3410973,51.9266404 60.2909669,51.8774051 C60.2408364,51.8281699 60.2157716,51.7534229 60.2157716,51.653162 Z M64.4681641,54.5911503 C64.4681641,54.8650774 64.3661144,55.0763383 64.1620118,55.2249393 C63.9579092,55.3735403 63.6714538,55.4478397 63.3026368,55.4478397 C62.9123354,55.4478397 62.6079764,55.3860727 62.3895509,55.262537 L62.3895509,54.8489628 C62.5309904,54.9205777 62.6827223,54.9769736 62.8447511,55.0181522 C63.0067799,55.0593308 63.1629876,55.0799198 63.313379,55.0799198 C63.5461275,55.0799198 63.7251622,55.0427701 63.8504884,54.9684696 C63.9758145,54.8941691 64.0384766,54.7809297 64.0384766,54.6287479 C64.0384766,54.514164 63.9887945,54.4161425 63.8894288,54.3346805 C63.7900631,54.2532185 63.596258,54.1569874 63.3080079,54.0459842 C63.0340807,53.9439329 62.8393805,53.8548632 62.7239015,53.7787723 C62.6084224,53.7026814 62.5224857,53.6162972 62.466089,53.5196171 C62.4096922,53.4229369 62.3814942,53.3074595 62.3814942,53.1731815 C62.3814942,52.9332714 62.4790681,52.7439423 62.6742188,52.6051883 C62.8693695,52.4664344 63.1370264,52.3970585 63.4771973,52.3970585 C63.7940935,52.3970585 64.1038234,52.4615109 64.4063966,52.5904178 L64.2479493,52.9529667 C63.9525377,52.8312213 63.6848808,52.7703495 63.4449708,52.7703495 C63.2337067,52.7703495 63.0743659,52.8034709 62.9669434,52.8697147 C62.859521,52.9359585 62.8058106,53.0272662 62.8058106,53.1436405 C62.8058106,53.2224169 62.825952,53.2895549 62.8662354,53.3450565 C62.9065188,53.4005581 62.9714189,53.4533733 63.0609376,53.5035038 C63.1504563,53.5536342 63.3223295,53.6261433 63.5765626,53.7210331 C63.9256854,53.8481496 64.1615636,53.9761594 64.2842042,54.1050663 C64.4068448,54.2339732 64.4681641,54.3959995 64.4681641,54.5911503 Z M67.0689454,55.0799198 C67.1477218,55.0799198 67.2238116,55.0741012 67.2972169,55.0624637 C67.3706222,55.0508263 67.4288085,55.0387415 67.4717774,55.0262088 L67.4717774,55.3672733 C67.4234374,55.3905482 67.3522711,55.4097944 67.2582765,55.4250126 C67.1642819,55.4402307 67.079688,55.4478397 67.0044923,55.4478397 C66.4351535,55.4478397 66.1504884,55.1479566 66.1504884,54.5481815 L66.1504884,52.7972049 L65.7288575,52.7972049 L65.7288575,52.5823612 L66.1504884,52.3970585 L66.3384767,51.7686405 L66.5962892,51.7686405 L66.5962892,52.4507694 L67.4502931,52.4507694 L67.4502931,52.7972049 L66.5962892,52.7972049 L66.5962892,54.5293827 C66.5962892,54.7066297 66.6383623,54.842696 66.7225099,54.9375858 C66.8066574,55.0324756 66.9221348,55.0799198 67.0689454,55.0799198 Z M69.4038575,52.4507694 L69.4038575,54.3601932 C69.4038575,54.6001033 69.4584631,54.7791379 69.5676759,54.8973026 C69.6768887,55.0154673 69.8478668,55.0745487 70.0806153,55.0745487 C70.3885596,55.0745487 70.6136957,54.9904024 70.7560304,54.8221073 C70.8983651,54.6538122 70.9695314,54.378994 70.9695314,53.9976444 L70.9695314,52.4507694 L71.4153321,52.4507694 L71.4153321,55.3941288 L71.0474122,55.3941288 L70.9829591,54.9993534 L70.9587892,54.9993534 C70.8674801,55.1443736 70.7408131,55.2553751 70.5787843,55.3323612 C70.4167555,55.4093473 70.2319022,55.4478397 70.0242189,55.4478397 C69.6661442,55.4478397 69.3980397,55.3627982 69.2198976,55.1927128 C69.0417554,55.0226273 68.9526857,54.7504946 68.9526857,54.3763065 L68.9526857,52.4507694 L69.4038575,52.4507694 Z M75.1843263,54.5911503 C75.1843263,54.8650774 75.0822765,55.0763383 74.8781739,55.2249393 C74.6740714,55.3735403 74.3876159,55.4478397 74.0187989,55.4478397 C73.6284975,55.4478397 73.3241386,55.3860727 73.105713,55.262537 L73.105713,54.8489628 C73.2471525,54.9205777 73.3988844,54.9769736 73.5609132,55.0181522 C73.722942,55.0593308 73.8791498,55.0799198 74.0295411,55.0799198 C74.2622897,55.0799198 74.4413244,55.0427701 74.5666505,54.9684696 C74.6919767,54.8941691 74.7546388,54.7809297 74.7546388,54.6287479 C74.7546388,54.514164 74.7049567,54.4161425 74.6055909,54.3346805 C74.5062252,54.2532185 74.3124202,54.1569874 74.02417,54.0459842 C73.7502429,53.9439329 73.5555427,53.8548632 73.4400636,53.7787723 C73.3245845,53.7026814 73.2386479,53.6162972 73.1822511,53.5196171 C73.1258543,53.4229369 73.0976564,53.3074595 73.0976564,53.1731815 C73.0976564,52.9332714 73.1952303,52.7439423 73.390381,52.6051883 C73.5855317,52.4664344 73.8531885,52.3970585 74.1933595,52.3970585 C74.5102556,52.3970585 74.8199856,52.4615109 75.1225587,52.5904178 L74.9641114,52.9529667 C74.6686998,52.8312213 74.401043,52.7703495 74.1611329,52.7703495 C73.9498689,52.7703495 73.790528,52.8034709 73.6831056,52.8697147 C73.5756832,52.9359585 73.5219728,53.0272662 73.5219728,53.1436405 C73.5219728,53.2224169 73.5421142,53.2895549 73.5823976,53.3450565 C73.622681,53.4005581 73.6875811,53.4533733 73.7770997,53.5035038 C73.8666184,53.5536342 74.0384917,53.6261433 74.2927247,53.7210331 C74.6418476,53.8481496 74.8777257,53.9761594 75.0003663,54.1050663 C75.1230069,54.2339732 75.1843263,54.3959995 75.1843263,54.5911503 Z" id="RedSaludUCChristus-Copy-2" fill="#5F5F5F" fill-rule="nonzero"/>
            <path d="M29.0531208,0.0130235079 L29.0511173,0.00386334255 C30.4616398,-0.0518414101 31.622325,0.494850484 32.533173,1.64393903 C32.8013093,1.98220883 32.622994,2.55641133 32.3099645,3.09028736 C32.3213991,3.18570085 32.3336274,3.26929693 32.3466493,3.34107558 C32.40718,3.67472854 32.5312241,4.66960093 32.5337404,4.85651747 C32.5403882,5.35033246 32.4742414,5.63625747 32.3308328,6.6291099 C33.6498119,6.74821444 34.9594874,7.18404087 36.1445357,7.96060411 L37.8877748,9.10297105 L39.6783322,7.92961542 C40.5666711,7.34748615 41.5584637,6.94122986 42.5999109,6.73288362 C42.8525899,6.68233403 43.1048832,6.64383513 43.3561955,6.61699018 C43.289105,5.68695862 43.2490109,5.06864342 43.235913,4.76204457 C43.2283756,4.58560419 43.4178996,3.81327932 43.4159215,3.68917465 C43.4061866,3.07838512 43.3355194,2.74535003 43.4112437,2.49670373 C43.4320892,2.42825616 43.4550683,2.36105128 43.4800856,2.29513984 L43.3004963,1.030355 C43.2624521,0.762422976 43.4488131,0.514380243 43.7167451,0.476336045 C43.727816,0.474764059 43.7389375,0.473571499 43.7500901,0.472760459 L46.0372383,0.306433668 C46.450405,0.259090735 46.8799241,0.294330496 47.3031336,0.424220713 C48.9500433,0.929685298 49.8777529,2.67708756 49.375231,4.32715291 C49.2652961,4.68813194 48.8303099,5.2835115 48.0702723,6.11329159 C47.9724479,6.22009259 47.7304517,6.82021094 47.5307944,7.255914 C49.939992,8.30293524 51.8142431,10.4735779 52.3685991,13.2446025 C53.3688237,18.2443618 50.4914247,23.2438861 43.7364021,28.2431752 L39.8857484,31.4077623 L44.7622929,35.4542104 L43.4571087,35.9942406 L43.2086579,37.3486018 L37.9603969,32.9706026 L32.5668917,37.3486018 L32.318441,35.9942406 L31.0132568,35.4542104 L35.9886084,31.3257742 L32.4145848,28.3443919 C25.4157424,23.0763675 22.4131054,18.0427073 23.4069505,13.2446025 C23.6194985,12.2184594 24.0235339,11.2415662 24.5979029,10.3650696 C24.8855048,9.92618443 25.2074351,9.5233268 25.5578358,9.15771658 C25.8222225,8.19453576 26.03529,7.21022347 26.19704,6.20477797 C26.3684873,5.13905291 26.3213077,4.21080758 26.3827211,3.48287856 C26.3980445,3.30125224 26.4912841,2.38209969 26.5674196,2.17473647 C26.8457202,1.05663214 27.6514306,0.41493019 28.8062774,0.0642625506 C28.8874469,0.0396155185 28.970062,0.0225736469 29.0531208,0.0130235079 L29.0531208,0.0130235079 Z M43.054142,25.4629516 L42.8958303,24.7363296 C42.4130386,23.3701522 41.8223167,22.5887023 41.1236647,22.3919799 L39.7303444,21.9996569 C39.434585,21.9163787 39.2302743,21.6465945 39.2302743,21.3393342 L39.2302743,21.2454201 C39.4167676,21.0138743 39.5882237,20.7544111 39.739784,20.4924313 C39.8457806,20.309211 39.9421114,20.0834684 40.0279757,19.8347622 L40.1184983,19.863122 C40.2223548,19.8956593 40.335226,19.8557841 40.3955963,19.7652287 L40.5518029,19.5309188 C40.6655223,19.3603397 40.7177822,19.1561283 40.6999822,18.951892 L40.6882302,18.8170498 C40.678875,18.7097081 40.6004878,18.6210779 40.4950938,18.5986757 L40.3520813,18.5682775 C40.4557964,18.0139273 40.5110212,17.4916957 40.5110212,17.1660886 C40.5110212,15.7159327 39.3383765,14.5403491 37.891846,14.5403491 C36.4453155,14.5403491 35.2726708,15.7159327 35.2726708,17.1660886 C35.2726708,17.4930113 35.3323158,18.0181505 35.4412659,18.5749984 L35.3298728,18.5986757 C35.2244787,18.6210779 35.1460916,18.7097081 35.1367364,18.8170498 L35.1249843,18.951892 C35.1071843,19.1561283 35.1594443,19.3603397 35.2731637,19.5309188 L35.4293702,19.7652287 C35.4897406,19.8557841 35.6026117,19.8956593 35.7064683,19.863122 L35.7758126,19.8413971 C35.8625665,20.0874832 35.9590612,20.3108416 36.0641144,20.4924313 C36.2114589,20.7471237 36.3756381,20.9994376 36.5534177,21.2260335 L36.5534177,21.3390072 C36.5534177,21.6463528 36.3489956,21.91619 36.0531262,21.9993922 L34.6590127,22.3914343 C33.9606967,22.5883898 33.3703131,23.3697444 32.8878617,24.7354981 L32.7281885,25.4685781 L37.8877748,29.7498882 L43.054142,25.4629516 Z" id="Shape" fill="url(#linearGradient-1)"/>
        </g>
    </g>
</svg>