<?xml version="1.0" encoding="UTF-8"?>
<svg width="98px" height="98px" viewBox="0 0 98 98" version="1.1" xmlns="http://www.w3.org/2000/svg" xmlns:xlink="http://www.w3.org/1999/xlink">
    <title>psico</title>
    <defs>
        <linearGradient x1="-1.11022302e-14%" y1="50%" x2="100%" y2="50%" id="linearGradient-1">
            <stop stop-color="#FFE9E9" offset="0%"></stop>
            <stop stop-color="#FFBBBB" offset="100%"></stop>
        </linearGradient>
        <path d="M1.65815875,33.2920533 L0.624576524,32.0000756 C-0.358618336,30.771082 -0.159359108,28.9777489 1.06963447,27.9945541 C1.15580828,27.925615 1.2459138,27.8617398 1.33949577,27.803251 L2.62457652,27.0000756 L2.62457652,27.0000756 C2.00324884,26.068084 1.91065129,24.8802469 2.3800444,23.8632285 L3.12457652,22.2500756 C4.11674828,20.1003701 5.48147138,18.1431807 7.15563362,16.4690185 L10.2439064,13.3807457 C11.1638802,12.4607719 12.1250904,11.5829807 13.1245765,10.7500756 L14.6245765,9.50007556 L16.1245765,8.25007556 C17.1118265,7.42736728 18.2720991,6.83819492 19.5188403,6.52650962 L21.6245765,6.00007556 L21.6245765,6.00007556 L23.6245765,3.50007556 C27.8250358,2.07968588 30.4917024,1.24635254 31.6245765,1.00007556 C32.7574506,0.753798586 34.4241173,0.753798586 36.6245765,1.00007556 C39.2348891,0.0212083336 42.0734205,-0.177959119 44.7948495,0.426802886 L45.1245765,0.500075564 L45.1245765,0.500075564 L45.8737758,0.425155638 C48.6700905,0.145524165 51.4932467,0.513326865 54.1245765,1.50007556 L54.1245765,1.50007556 L54.1245765,1.50007556 C56.7178994,0.851744856 59.4529768,1.0812507 61.90199,2.15269395 L66.1245765,4.00007556 L66.1245765,4.00007556 L66.5535087,4.085862 C71.0810374,4.99136774 75.0634195,7.65834008 77.6245765,11.5000756 L77.6245765,11.5000756 L77.6245765,11.5000756 L81.526654,15.1019933 C83.2070347,16.6531139 84.301168,18.7362158 84.6245765,21.0000756 L84.6245765,21.0000756 L84.6245765,21.0000756 L86.6207893,23.9036577 C88.9379092,27.274014 90.6325985,31.0321635 91.6245765,35.0000756 L91.6245765,35.0000756 L91.6245765,35.0000756 L91.8848672,35.9110931 C92.3643839,37.5894013 92.2728267,39.3794502 91.6245765,41.0000756 L91.6245765,41.0000756 L91.6245765,41.0000756 L92.1095982,43.9102055 C92.4432654,45.9122087 92.0964636,47.9682826 91.1245765,49.7500756 L90.8096751,50.3273949 C90.0236637,51.7684158 89.0352564,53.0893957 87.8745765,54.2500756 L87.5497958,54.5748563 C86.6038718,55.5207803 85.5360588,56.3363714 84.3745765,57.0000756 C83.2461633,57.6448831 81.9225658,57.8596734 80.648153,57.6047909 L80.1245765,57.5000756 L80.1245765,57.5000756 C80.1245765,60.3597549 78.8901094,63.0802343 76.7379814,64.9633463 L76.1245765,65.5000756 L76.1245765,65.5000756 L74.0384508,66.4483145 C71.7886224,67.4709638 69.3459202,68.0000756 66.8745765,68.0000756 C64.3839773,68.0000756 61.9027783,67.694626 59.4865421,67.090567 L59.1245765,67.0000756 L59.1245765,67.0000756 L60.1245765,73.5000756 C59.7366556,74.4698779 58.6360034,74.941586 57.6662011,74.553665 C57.463091,74.472421 57.2756158,74.356555 57.1121153,74.2112212 L56.8745765,74.0000756 C55.3905834,72.6809705 54.1950911,71.0695237 53.3630444,69.2667559 L52.9033908,68.2708397 C52.0525445,66.4273395 51.0389216,64.6634256 49.8745765,63.0000756 L49.5676321,62.5615835 C48.6057473,61.1874624 47.609442,59.8377597 46.5796618,58.5137566 L44.6245765,56.0000756 L44.6245765,56.0000756 L39.1245765,57.0000756 C33.0902353,57.6352694 27.0769906,55.6223287 22.6411809,51.4822396 L22.1245765,51.0000756 L22.1245765,51.0000756 L21.5823145,50.4578135 C20.6779381,49.5534372 20.314378,48.2408697 20.6245765,47.0000756 L20.6245765,47.0000756 L20.6245765,47.0000756 C19.7287911,46.7014804 19.1245765,45.8631775 19.1245765,44.9189367 L19.1245765,44.5000756 L19.1245765,44.5000756 L14.6245765,43.5000756 C13.3322879,43.5000756 12.0808976,43.0470098 11.088134,42.2197068 L9.62457652,41.0000756 L9.62457652,41.0000756 L8.35442172,40.5237675 C6.58680935,39.8609129 5.09584719,38.61886 4.12457652,37.0000756 L3.42051343,35.8266371 C2.89048763,34.9432607 2.30171021,34.0964927 1.65815875,33.2920533 Z" id="path-2"></path>
        <filter x="-6.0%" y="-7.4%" width="111.9%" height="114.7%" filterUnits="objectBoundingBox" id="filter-4">
            <feGaussianBlur stdDeviation="5" in="SourceAlpha" result="shadowBlurInner1"></feGaussianBlur>
            <feOffset dx="0" dy="1" in="shadowBlurInner1" result="shadowOffsetInner1"></feOffset>
            <feComposite in="shadowOffsetInner1" in2="SourceAlpha" operator="arithmetic" k2="-1" k3="1" result="shadowInnerInner1"></feComposite>
            <feColorMatrix values="0 0 0 0 1   0 0 0 0 0.446474848   0 0 0 0 0.446474848  0 0 0 1 0" type="matrix" in="shadowInnerInner1"></feColorMatrix>
        </filter>
        <path d="M26.3472264,18.0840504 C26.5769908,17.9308742 26.8874254,17.9929611 27.0406017,18.2227255 L27.0406017,18.2227255 L27.7848457,19.3390915 C28.6543212,20.6433048 29.1984204,22.1369775 29.3715184,23.6948598 L29.3715184,23.6948598 L29.4558711,24.4540342 C29.5682553,25.4654917 29.6245765,26.4823937 29.6245765,27.5000756 C29.6245765,28.4088962 29.8361736,29.3052357 30.2426105,30.1181096 L30.2426105,30.1181096 L31.059467,31.7520224 L31.1773522,31.7500756 L38.3745765,31.7500756 C39.3065324,31.7500756 40.2308911,31.5824574 41.1035086,31.2552258 L41.1035086,31.2552258 L41.9162972,30.9504301 C42.2909544,30.8099336 42.664568,30.6667024 43.0371082,30.5207484 L42.2085514,29.2774257 L42.1502349,29.1581894 L41.6502349,27.6581894 C41.562911,27.3962178 41.704491,27.1130578 41.9664626,27.0257339 C42.2284343,26.93841 42.5115943,27.07999 42.5989182,27.3419617 L42.5989182,27.3419617 L43.0777439,28.7784388 L43.9869723,30.1417649 C44.4690674,29.9459236 44.9493041,29.7454942 45.4276169,29.540503 L45.4276169,29.540503 L45.5047477,29.507447 C46.6382753,29.0216495 47.8014249,28.608111 48.987216,28.2693136 L48.987216,28.2693136 L49.2750355,28.1870794 C49.7304676,28.056956 50.1891124,27.9387113 50.6505026,27.8324506 L51.1502349,25.8419617 L51.492121,24.8163033 C51.5794449,24.5543317 51.8626049,24.4127517 52.1245765,24.5000756 L52.1245765,24.5000756 L52.2076316,24.5363345 C52.4152163,24.6503473 52.5181208,24.8998126 52.4403516,25.1323799 L52.4403516,25.1323799 L52.1096478,26.1213434 L51.738467,27.6050224 L52.292377,27.5068786 C53.2090049,27.3541073 54.1422276,27.3350109 55.0630042,27.4495894 L55.456776,27.5068786 L55.8539541,27.5730749 C56.6342234,27.7031198 57.3906627,27.9491016 58.0981833,28.302862 C58.5235125,28.5155265 58.9365516,28.7514458 59.335449,29.0094752 L60.0527104,27.8146938 C60.4900131,27.085856 60.9645983,26.3800466 61.4745765,25.7000756 C62.0143716,24.9803487 62.7143247,24.3961845 63.5190037,23.993845 L63.5190037,23.993845 L64.4009697,23.552862 C64.647959,23.4293673 64.9482955,23.5294795 65.0717901,23.7764688 C65.1952847,24.023458 65.0951726,24.3237945 64.8481833,24.4472892 L64.8481833,24.4472892 L63.9662173,24.8882722 C63.3003937,25.221184 62.7212246,25.7045448 62.2745765,26.3000756 C61.7852192,26.952552 61.3298238,27.6298222 60.9102033,28.3291896 L60.9102033,28.3291896 L60.155467,29.5850224 L61.1745765,30.3500756 C61.3709444,30.4973515 61.4281381,30.7613407 61.3220574,30.9733417 L61.2745765,31.0500756 C61.1088911,31.2709895 60.7954904,31.315761 60.5745765,31.1500756 L60.5745765,31.1500756 L59.4690037,30.320896 C58.8979227,29.8925852 58.2894577,29.5165332 57.6509697,29.1972892 C57.0326098,28.8881092 56.371496,28.6731257 55.6895551,28.5594689 L55.6895551,28.5594689 L55.292377,28.4932725 C54.353651,28.3368182 53.3955021,28.3368182 52.456776,28.4932725 C51.4761835,28.6567046 50.5056254,28.875498 49.5497566,29.1486034 L49.5497566,29.1486034 L49.2619371,29.2308375 C48.1167334,29.5580386 46.9933961,29.9574224 45.898667,30.426592 L45.898667,30.426592 L45.8215362,30.4596481 C44.647959,30.9626097 43.4629388,31.43844 42.2674206,31.8867593 L42.2674206,31.8867593 L41.454632,32.191555 C40.4697374,32.5608905 39.4264444,32.7500756 38.3745765,32.7500756 L38.3745765,32.7500756 L31.1773522,32.7500756 C30.100564,32.7500756 29.0478685,33.0688061 28.1519266,33.6661007 L28.1519266,33.6661007 L27.8286234,33.8816362 C27.0734685,34.3850728 26.3698882,34.9618707 25.7281299,35.603629 C25.0431269,36.2886319 24.3026993,36.9158683 23.5144027,37.4789372 L23.5144027,37.4789372 L22.4678047,38.2265072 C21.6410053,38.8170783 20.8997366,39.519016 20.2650109,40.3124231 C19.6626281,41.0654016 19.2631338,41.9601129 19.1046067,42.9112758 L19.1046067,42.9112758 L18.8677735,44.3322751 C18.822376,44.6046602 18.5647622,44.7886701 18.292377,44.7432725 C18.0199919,44.697875 17.835982,44.4402612 17.8813796,44.1678761 L17.8813796,44.1678761 L18.1182128,42.7468768 C18.2278315,42.0891646 18.4353317,41.4543833 18.7316272,40.8628824 L17.8673286,40.428822 L13.7512121,37.9591521 C13.0715604,37.5513611 12.5817398,36.8902815 12.3895053,36.1213434 C12.2196776,35.4420329 12.077036,34.7562135 11.961921,34.0655235 L11.961921,34.0655235 L11.8813796,33.5822751 C11.7104697,32.5568159 11.6245765,31.518989 11.6245765,30.4793849 L11.6245765,30.4793849 L11.6245765,30.0000756 C11.6245765,28.7624406 11.3364229,27.5418024 10.7829357,26.434828 L10.7829357,26.434828 L10.6773629,26.2236824 C10.5538683,25.9766931 10.6539805,25.6763566 10.9009697,25.552862 C11.147959,25.4293673 11.4482955,25.5294795 11.5717901,25.7764688 L11.5717901,25.7764688 L11.6773629,25.9876144 C12.3002778,27.2334442 12.6245765,28.6071955 12.6245765,30.0000756 L12.6245765,30.0000756 L12.6245765,30.4793849 C12.6245765,31.4639081 12.7059189,32.4467484 12.8677735,33.4178761 L12.8677735,33.4178761 L12.9483149,33.9011245 C13.0590547,34.5655631 13.1962749,35.2253161 13.3596478,35.8788078 C13.4875579,36.3904481 13.8134774,36.8303209 14.2657079,37.1016592 L14.2657079,37.1016592 L18.3481833,39.552862 L19.2478694,40.0016584 C19.3233891,39.8948887 19.4021697,39.7901935 19.4841421,39.687728 C20.1763905,38.8224175 20.9848375,38.056866 21.8865666,37.4127737 L21.8865666,37.4127737 L22.9331645,36.6652038 C23.6766399,36.1341499 24.3749682,35.5425771 25.0210231,34.8965222 C25.0639614,34.8535839 25.1071576,34.8109169 25.1506092,34.7685231 L24.7387901,34.4607357 C23.7782409,33.7403239 22.8700366,32.9526425 22.0210231,32.103629 L22.0210231,32.103629 L21.8017995,31.8844054 C21.1461065,31.2287123 20.4124733,30.6559088 19.6173286,30.178822 C18.8081949,29.6933418 17.9615198,29.2733694 17.0854055,28.9229236 L17.0854055,28.9229236 L15.9388812,28.4643139 C15.6824894,28.3617572 15.5577815,28.070772 15.6603382,27.8143802 C15.7628949,27.5579885 16.0538801,27.4332805 16.3102719,27.5358372 L16.3102719,27.5358372 L17.4567961,27.9944469 C18.3824287,28.3647 19.2769581,28.8084093 20.1318244,29.3213291 C20.9970792,29.840482 21.7953989,30.4637912 22.5089063,31.1772986 L22.5089063,31.1772986 L22.7281299,31.3965222 C23.5436839,32.2120762 24.416096,32.9687152 25.3387901,33.6607357 L25.3387901,33.6607357 L25.902678,34.0836573 C26.3390757,33.7129015 26.7969059,33.3675975 27.2739232,33.0495859 L27.2739232,33.0495859 L27.5972264,32.8340504 C28.3257806,32.3483476 29.1419278,32.0183049 29.9947273,31.859346 L29.3481833,30.5653231 C28.8723187,29.6135938 28.6245765,28.5641413 28.6245765,27.5000756 C28.6245765,26.5192888 28.5702971,25.5392537 28.4619874,24.5644657 L28.4619874,24.5644657 L28.3776347,23.8052913 C28.2221918,22.406306 27.7335884,21.0649811 26.9527954,19.8937917 L26.9527954,19.8937917 L26.2085514,18.7774257 C26.0553751,18.5476613 26.1174621,18.2372266 26.3472264,18.0840504 Z" id="path-5"></path>
        <filter x="-11.0%" y="-22.4%" width="122.0%" height="144.9%" filterUnits="objectBoundingBox" id="filter-6">
            <feOffset dx="0" dy="0" in="SourceAlpha" result="shadowOffsetOuter1"></feOffset>
            <feGaussianBlur stdDeviation="2" in="shadowOffsetOuter1" result="shadowBlurOuter1"></feGaussianBlur>
            <feColorMatrix values="0 0 0 0 1   0 0 0 0 0.447058824   0 0 0 0 0.447058824  0 0 0 1 0" type="matrix" in="shadowBlurOuter1"></feColorMatrix>
        </filter>
        <path d="M44.8673286,0.928822027 L46.4578201,1.88311687 C47.026824,2.22451924 47.5518105,2.63441627 48.0210231,3.10362895 L48.0639164,3.14652217 C48.422901,3.50550685 48.6245765,3.99239456 48.6245765,4.50007556 C48.6245765,5.08008179 48.489536,5.65212261 48.2301493,6.17089596 L47.1773629,8.27646877 C46.8784469,8.87430085 46.4590633,9.40381577 45.9455868,9.83171284 L44.6633818,10.900217 C44.043922,11.4164335 43.5379763,12.0552421 43.1773629,12.7764688 C42.8138347,13.5035253 42.6245765,14.3052357 42.6245765,15.1181096 L42.6245765,19.5000756 C42.6245765,19.7762179 42.8484341,20.0000756 43.1245765,20.0000756 C43.4007189,20.0000756 43.6245765,19.7762179 43.6245765,19.5000756 L43.6245765,15.1181096 C43.6245765,14.4604808 43.7776896,13.8118834 44.0717901,13.2236824 C44.3707062,12.6258503 44.7900897,12.0963354 45.3035662,11.6684383 L46.5857712,10.5999341 C47.205231,10.0837176 47.7111768,9.44490903 48.0717901,8.72368236 L49.1245765,6.61810955 C49.4533909,5.96048078 49.6245765,5.23532689 49.6245765,4.50007556 C49.6245765,3.72717807 49.3175442,2.98593645 48.7710231,2.43941539 L48.7281299,2.39652217 C48.2011029,1.86949516 47.6114299,1.40909242 46.9723158,1.02562394 L45.3818244,0.0713291012 C45.1450343,-0.0707449786 44.8379041,0.00603755333 44.6958301,0.242827686 C44.553756,0.479617819 44.6305385,0.786747947 44.8673286,0.928822027 Z" id="path-7"></path>
        <filter x="-85.7%" y="-30.0%" width="271.4%" height="160.0%" filterUnits="objectBoundingBox" id="filter-8">
            <feOffset dx="0" dy="0" in="SourceAlpha" result="shadowOffsetOuter1"></feOffset>
            <feGaussianBlur stdDeviation="2" in="shadowOffsetOuter1" result="shadowBlurOuter1"></feGaussianBlur>
            <feColorMatrix values="0 0 0 0 1   0 0 0 0 0.447058824   0 0 0 0 0.447058824  0 0 0 1 0" type="matrix" in="shadowBlurOuter1"></feColorMatrix>
        </filter>
        <path d="M18.9664626,12.0257339 C19.2284343,11.93841 19.5115943,12.07999 19.5989182,12.3419617 L19.5989182,12.3419617 L20.0717901,13.7764688 C20.694705,15.0222986 21.5991268,16.1059883 22.7134309,16.9417164 L22.7134309,16.9417164 L22.9245765,17.1000756 C22.9857821,17.1459798 23.033467,17.2032226 23.0669013,17.2666957 C23.2914432,17.0484041 23.5237641,16.8353468 23.7606437,16.627314 L24.1934003,16.2570782 L24.3490131,16.1274009 C25.3075388,15.3286295 26.5157717,14.8911888 27.7634925,14.8911888 C28.8476304,14.8911888 29.9229173,15.0750717 30.9438212,15.4340689 L31.3240221,15.5768842 L32.1991879,15.9269505 C32.4555796,16.0295072 32.5802876,16.3204924 32.4777309,16.5768842 C32.3865694,16.804788 32.1465261,16.9286453 31.9142364,16.8813267 L31.8277972,16.8554272 L30.9526314,16.5053609 C29.9383303,16.0996404 28.8559282,15.8911888 27.7634925,15.8911888 C26.8341903,15.8911888 25.9318477,16.1898441 25.1880282,16.7395221 L24.9891975,16.8956222 L24.8335847,17.0252995 C23.9981183,17.7215215 23.2182676,18.4814802 22.5009934,19.2982147 L22.1476032,19.711281 L21.9223982,19.981527 C21.2194369,20.8250806 20.4332815,21.5956701 19.5758401,22.2816232 C18.7700743,22.9262359 17.8264276,23.373474 16.8203215,23.5896615 L16.5166913,23.6475526 L15.095692,23.8843858 C14.8233069,23.9297833 14.5656931,23.7457735 14.5202956,23.4733883 C14.4799422,23.2312682 14.620849,23.0008193 14.8439646,22.9207134 L14.931293,22.8979919 L16.3522923,22.6611587 C17.3034552,22.5026315 18.1981665,22.1031372 18.951145,21.5007544 C19.6219753,20.9640902 20.2463294,20.3722457 20.8177374,19.7315624 L21.154177,19.3413426 L21.3793819,19.0710966 C21.7031716,18.682549 22.0401195,18.305483 22.3895877,17.9405365 L22.3245765,17.9000756 L21.995624,17.6432526 C20.7986766,16.7087603 19.8263855,15.5178877 19.1502349,14.1581894 L19.1502349,14.1581894 L18.6502349,12.6581894 C18.562911,12.3962178 18.704491,12.1130578 18.9664626,12.0257339 Z M28.1167989,8.5000492 L28.206776,8.5068786 C28.4488962,8.54723196 28.6211889,8.75526235 28.6246029,8.99229794 L28.6177735,9.08227506 L28.4465715,10.1094872 C28.2322745,11.3952689 28.1245765,12.6965581 28.1245765,14.0000756 C28.1245765,14.2762179 27.9007189,14.5000756 27.6245765,14.5000756 C27.3484341,14.5000756 27.1245765,14.2762179 27.1245765,14.0000756 C27.1245765,12.8679103 27.2025271,11.7373578 27.3577654,10.6164276 L27.4601775,9.94508822 L27.6313796,8.91787607 C27.6666887,8.70602095 27.8303757,8.54762744 28.029541,8.50905218 L28.1167989,8.5000492 Z" id="path-9"></path>
        <filter x="-33.3%" y="-39.0%" width="166.7%" height="178.0%" filterUnits="objectBoundingBox" id="filter-10">
            <feOffset dx="0" dy="0" in="SourceAlpha" result="shadowOffsetOuter1"></feOffset>
            <feGaussianBlur stdDeviation="2" in="shadowOffsetOuter1" result="shadowBlurOuter1"></feGaussianBlur>
            <feColorMatrix values="0 0 0 0 1   0 0 0 0 0.447058824   0 0 0 0 0.447058824  0 0 0 1 0" type="matrix" in="shadowBlurOuter1"></feColorMatrix>
        </filter>
        <path d="M35.2231887,4.50007556 C35.9096515,4.50007556 36.580755,4.70326936 37.1519266,5.08405042 C37.6341926,5.40556104 38.1359888,5.6967647 38.6544091,5.95597486 L38.6544091,5.95597486 L38.8481833,6.05286197 C38.9554287,6.10648463 39.034982,6.19344886 39.0805617,6.29491008 L39.312229,6.10964116 C39.52786,5.93713639 39.8425062,5.97209707 40.0150109,6.18772804 C40.1875157,6.40335901 40.152555,6.71800519 39.936924,6.89050997 L39.936924,6.89050997 L38.8446553,7.76432496 C37.951927,8.4785076 37.1747627,9.32618412 36.5406017,10.2774257 C35.9050786,11.2307102 35.4146819,12.2731086 35.0854659,13.3704954 L35.0854659,13.3704954 L34.5345115,15.2070101 C34.2626776,16.113123 34.1245765,17.0540659 34.1245765,18.0000756 C34.1245765,18.9398363 34.2760814,19.8734513 34.5732598,20.7649866 L34.5732598,20.7649866 L35.5989182,23.8419617 C35.6862421,24.1039333 35.5446621,24.3870933 35.2826904,24.4744172 C35.0207187,24.5617411 34.7375588,24.4201611 34.6502349,24.1581894 L34.6502349,24.1581894 L33.6245765,21.0812144 C33.2934093,20.0877126 33.1245765,19.0473184 33.1245765,18.0000756 C33.1245765,16.9567413 33.2768853,15.9189952 33.5766852,14.9196622 L33.5766852,14.9196622 L34.1276396,13.0831475 C34.3458367,12.3558238 34.6292034,11.6507334 34.9737797,10.9762935 L34.9009697,10.9472892 L28.9009697,7.94728916 C28.6539805,7.82379454 28.5538683,7.52345801 28.6773629,7.27646877 C28.8008576,7.02947952 29.1011941,6.92936734 29.3481833,7.05286197 L29.3481833,7.05286197 L35.3481833,10.052862 C35.3870261,10.0722833 35.4222362,10.0960784 35.4535153,10.1233519 L35.4570556,10.1155723 L35.7085514,9.72272547 C36.3997843,8.68587614 37.2468901,7.76191226 38.2199603,6.98345615 L38.2199603,6.98345615 L38.3165765,6.90507556 L38.2071955,6.85040205 C37.7905647,6.64208664 37.3839539,6.41448744 36.9886769,6.16836685 L36.5972264,5.91610071 C36.1903224,5.64483133 35.7122265,5.50007556 35.2231887,5.50007556 L35.2231887,5.50007556 L30.8745765,5.50007556 C29.7692322,5.50007556 28.6711164,5.67827523 27.6224946,6.0278158 L27.6224946,6.0278158 L26.3013247,6.46820579 C25.3527853,6.78438557 24.4676743,7.26590973 23.686924,7.89050997 L23.686924,7.89050997 L23.0225757,8.42198868 C22.5548086,8.79620231 21.9736106,9.00007556 21.3745765,9.00007556 C20.9589775,9.00007556 20.549086,9.09683782 20.1773629,9.28269936 L20.1773629,9.28269936 L19.3481833,9.69728916 C18.4205866,10.1610875 17.5989907,10.8118035 16.9350653,11.608514 L16.9350653,11.608514 L16.7586872,11.8201678 C15.9373386,12.805786 15.1691883,13.8345457 14.4575149,14.9020558 L14.4575149,14.9020558 L13.9273522,15.6972999 C13.0778767,16.9715131 12.6245765,18.468662 12.6245765,20.0000756 C12.6245765,20.2762179 12.4007189,20.5000756 12.1245765,20.5000756 C11.8484341,20.5000756 11.6245765,20.2762179 11.6245765,20.0000756 C11.6245765,18.271237 12.1363148,16.5810804 13.0953019,15.1425997 L13.0953019,15.1425997 L13.6254646,14.3473556 C14.3568781,13.2502353 15.1463351,12.1929403 15.9904659,11.1799834 L15.9904659,11.1799834 L16.166844,10.9683296 C16.9190889,10.0656358 17.8499784,9.32835765 18.9009697,8.80286197 L18.9009697,8.80286197 L19.7301493,8.38827217 C20.2407278,8.13298291 20.8037324,8.00007556 21.3745765,8.00007556 C21.7465391,8.00007556 22.1074266,7.87348306 22.3978806,7.64111987 L22.3978806,7.64111987 L23.062229,7.10964116 C23.9350983,6.41134573 24.9246415,5.87300762 25.9850969,5.5195225 L25.9850969,5.5195225 L27.3062669,5.07913251 C28.4568551,4.69560311 29.6617501,4.50007556 30.8745765,4.50007556 L30.8745765,4.50007556 Z" id="path-11"></path>
        <filter x="-21.1%" y="-30.0%" width="142.1%" height="160.0%" filterUnits="objectBoundingBox" id="filter-12">
            <feOffset dx="0" dy="0" in="SourceAlpha" result="shadowOffsetOuter1"></feOffset>
            <feGaussianBlur stdDeviation="2" in="shadowOffsetOuter1" result="shadowBlurOuter1"></feGaussianBlur>
            <feColorMatrix values="0 0 0 0 1   0 0 0 0 0.447058824   0 0 0 0 0.447058824  0 0 0 1 0" type="matrix" in="shadowBlurOuter1"></feColorMatrix>
        </filter>
        <path d="M72.3481833,7.05286197 L68.3481833,5.05286197 L66.4463704,4.23686057 C65.3274972,3.7573435 64.1503505,3.42725271 62.9452872,3.25510082 L62.5280475,3.19549514 C61.5681839,3.05837178 60.5891402,3.17573362 59.6888812,3.53583722 C58.7808179,3.89906252 58.004268,4.52915058 57.4617634,5.34290746 L57.2085514,5.72272547 C56.5375798,6.72918284 55.8906495,7.75146197 55.2683096,8.78869504 L54.1322265,10.682167 C53.4881418,11.7556415 52.9877312,12.9090066 52.6438146,14.112715 C52.2993369,15.3183867 52.1245765,16.5661856 52.1245765,17.820103 L52.1245765,22.0000756 C52.1245765,22.2762179 52.3484341,22.5000756 52.6245765,22.5000756 C52.9007189,22.5000756 53.1245765,22.2762179 53.1245765,22.0000756 L53.1245765,17.820103 C53.1245765,16.6591021 53.286387,15.5037663 53.6053385,14.3874361 C53.9252175,13.2678597 54.3906523,12.1951079 54.9897194,11.1966628 L56.1258026,9.3031908 C56.7399816,8.27955909 57.3784286,7.27068524 58.0406017,6.27742566 L58.2938137,5.89760765 C58.724106,5.25216919 59.3400335,4.75240927 60.0602719,4.46431391 C60.7979255,4.16925246 61.6001338,4.07308858 62.3866261,4.18544464 L62.8038658,4.24505031 C63.92202,4.40478662 65.014271,4.71107127 66.0524511,5.1560056 L67.9276169,5.95964808 L71.9009697,7.94728916 C72.147959,8.07078378 72.4482955,7.97067161 72.5717901,7.72368236 C72.6952847,7.47669311 72.5951726,7.17635659 72.3481833,7.05286197 Z" id="path-13"></path>
        <filter x="-29.3%" y="-31.0%" width="158.5%" height="162.0%" filterUnits="objectBoundingBox" id="filter-14">
            <feOffset dx="0" dy="0" in="SourceAlpha" result="shadowOffsetOuter1"></feOffset>
            <feGaussianBlur stdDeviation="2" in="shadowOffsetOuter1" result="shadowBlurOuter1"></feGaussianBlur>
            <feColorMatrix values="0 0 0 0 1   0 0 0 0 0.447058824   0 0 0 0 0.447058824  0 0 0 1 0" type="matrix" in="shadowBlurOuter1"></feColorMatrix>
        </filter>
        <path d="M66.7341421,9.18772804 C66.9066469,8.97209707 67.2212931,8.93713639 67.436924,9.10964116 L67.436924,9.10964116 L68.686924,10.1096412 C69.5465335,10.7973287 70.3273234,11.5781186 71.0150109,12.437728 L71.0150109,12.437728 L71.1739895,12.6364512 C71.7623155,13.3718588 72.2390461,14.1899583 72.5888149,15.0643802 L72.5888149,15.0643802 L72.7540478,15.4774626 C72.8549319,15.7296728 72.9071345,15.9943671 72.9120031,16.2586034 C73.8515461,15.7825388 74.9185876,15.5954358 75.9754483,15.7275434 L75.9754483,15.7275434 L76.1865939,15.7539366 C77.6015651,15.930808 78.8566602,16.7483898 79.5903223,17.9711599 L79.5903223,17.9711599 L80.0406017,18.7227255 L81.1635437,20.4071384 C81.7703021,21.3172762 82.2530126,22.304245 82.5989182,23.3419617 C82.6862421,23.6039333 82.5446621,23.8870933 82.2826904,23.9744172 C82.0207187,24.0617411 81.7375588,23.9201611 81.6502349,23.6581894 C81.3324363,22.7047936 80.888949,21.7980221 80.3314934,20.9618386 L80.3314934,20.9618386 L79.1958301,19.2573234 L78.7328294,18.4856557 C78.1572617,17.5263762 77.1726229,16.8849725 76.0625592,16.7462145 L76.0625592,16.7462145 L75.8514135,16.7198213 C74.8165526,16.5904637 73.7696839,16.8375958 72.9019266,17.4161007 L72.9019266,17.4161007 L72.4419895,17.7227255 C72.4165451,17.7396884 72.3912226,17.7568181 72.3660234,17.7741131 C72.1108077,18.1083438 71.7838599,18.3782631 71.4110055,18.5667437 C71.182252,18.7952858 70.9694065,19.0403022 70.7745765,19.3000756 C70.4033047,19.7951046 70.2985255,20.4407836 70.4942029,21.0278158 L70.4942029,21.0278158 L70.5989182,21.3419617 C70.9470798,22.3864467 71.1245765,23.4802305 71.1245765,24.5812144 L71.1245765,24.5812144 L71.1245765,25.0000756 C71.1245765,25.2762179 70.9007189,25.5000756 70.6245765,25.5000756 C70.3484341,25.5000756 70.1245765,25.2762179 70.1245765,25.0000756 L70.1245765,25.0000756 L70.1245765,24.5812144 C70.1245765,23.5877126 69.9644077,22.600708 69.6502349,21.6581894 L69.6502349,21.6581894 L69.5455196,21.3440436 C69.2743021,20.5303912 69.3802728,19.6431148 69.824813,18.9201927 C69.6408604,18.9224148 69.4554909,18.9095682 69.2712421,18.8832469 L69.2712421,18.8832469 L68.3038658,18.7450503 C67.0971203,18.5726581 65.9200351,18.2341048 64.8061014,17.7390232 L64.8061014,17.7390232 L62.7452059,16.8230696 C62.1205992,16.5454666 61.587699,16.096147 61.2085514,15.5274257 C60.8119598,14.9325384 60.6847193,14.1979516 60.8581239,13.5043331 L60.8581239,13.5043331 L60.8895053,13.3788078 C61.0592142,12.6999719 61.2549216,12.0279015 61.476195,11.3640813 L61.476195,11.3640813 L61.6502349,10.8419617 C61.7375588,10.57999 62.0207187,10.43841 62.2826904,10.5257339 C62.5446621,10.6130578 62.6862421,10.8962178 62.5989182,11.1581894 L62.5989182,11.1581894 L62.4248783,11.6803091 C62.2116983,12.3198489 62.0231493,12.9673372 61.8596478,13.6213434 L61.8596478,13.6213434 L61.8282664,13.7468687 C61.723195,14.1671544 61.8002941,14.6122641 62.0406017,14.9727255 C62.3146616,15.3838153 62.6998588,15.7085978 63.1513444,15.9092581 L63.1513444,15.9092581 L65.2122399,16.8252116 C66.241869,17.2828246 67.3298703,17.5957555 68.4452872,17.7551008 L68.4452872,17.7551008 L69.4126634,17.8932974 C69.8504969,17.9558451 70.2968803,17.9155947 70.7164626,17.7757339 C70.7588666,17.7615993 70.8006109,17.7459348 70.8416239,17.7287954 C71.1643923,17.4190297 71.5144397,17.1392416 71.8872893,16.8906752 L71.6533443,17.0530572 L71.7085514,16.9727255 C71.9025136,16.6817822 71.9602664,16.3236032 71.8722466,15.990036 L71.8255711,15.8488533 L71.6603382,15.4357709 C71.3470606,14.6525769 70.920067,13.9198292 70.3931207,13.2611463 L70.3931207,13.2611463 L70.2341421,13.0624231 C69.5925863,12.2604784 68.8641737,11.5320657 68.062229,10.89051 L68.062229,10.89051 L66.812229,9.89050997 C66.596598,9.71800519 66.5616373,9.40335901 66.7341421,9.18772804 Z" id="path-15"></path>
        <filter x="-27.5%" y="-36.4%" width="154.9%" height="172.7%" filterUnits="objectBoundingBox" id="filter-16">
            <feOffset dx="0" dy="0" in="SourceAlpha" result="shadowOffsetOuter1"></feOffset>
            <feGaussianBlur stdDeviation="2" in="shadowOffsetOuter1" result="shadowBlurOuter1"></feGaussianBlur>
            <feColorMatrix values="0 0 0 0 1   0 0 0 0 0.447058824   0 0 0 0 0.447058824  0 0 0 1 0" type="matrix" in="shadowBlurOuter1"></feColorMatrix>
        </filter>
        <path d="M76.7177098,27.2094565 C76.8782143,26.9847502 77.1904893,26.9327043 77.4151956,27.0932088 C77.6399019,27.2537133 77.6919478,27.5659884 77.5314433,27.7906947 L77.5314433,27.7906947 L75.0289446,31.2941614 L73.1342788,33.8993268 C71.7035249,35.8666135 69.7927574,37.4346775 67.5841056,38.4540553 C65.387403,39.467918 63.0690503,40.1940707 60.6864805,40.6145242 L60.6864805,40.6145242 L58.6658199,40.9711113 C56.671326,41.3230808 54.6498884,41.5000756 52.6245765,41.5000756 L52.6245765,41.5000756 L52.3859168,41.5000756 C50.5610818,41.5000756 48.7371851,41.5828094 46.9198444,41.7480222 C45.0972414,41.9137133 43.2802123,42.1358603 41.4713746,42.414143 L41.4713746,42.414143 L38.3183133,42.8992294 C37.9085709,42.9622667 37.4992264,43.0278641 37.0903039,43.0960179 L37.0903039,43.0960179 L33.1863669,43.746674 C32.1744906,43.9153201 31.1504104,44.0000756 30.1245765,44.0000756 C30.1239103,44.0000756 30.1232442,44.0000755 30.122578,44.0000754 C30.1242989,44.1837712 30.0230543,44.3598537 29.8481833,44.4472892 C29.2958364,44.7234626 28.8479636,45.1713354 28.5717901,45.7236824 C28.2494574,46.3683477 27.9732884,47.0350787 27.7453648,47.7188496 L27.7453648,47.7188496 L27.0989182,49.6581894 C27.0115943,49.9201611 26.7284343,50.0617411 26.4664626,49.9744172 C26.204491,49.8870933 26.062911,49.6039333 26.1502349,49.3419617 L26.1502349,49.3419617 L26.7966815,47.4026219 C27.0395687,46.6739603 27.3338686,45.9634574 27.6773629,45.2764688 C27.9480671,44.7350605 28.3409345,44.2679851 28.8212466,43.9099613 C28.2184796,43.8311985 27.6229804,43.6932565 27.0434377,43.5000756 L27.0434377,43.5000756 L23.9664626,42.4744172 C23.704491,42.3870933 23.562911,42.1039333 23.6502349,41.8419617 C23.7375588,41.57999 24.0207187,41.43841 24.2826904,41.5257339 L24.2826904,41.5257339 L27.3596655,42.5513923 C28.2512008,42.8485707 29.1848158,43.0000756 30.1245765,43.0000756 C31.0953295,43.0000756 32.0644231,42.9198709 33.0219679,42.7602801 L33.0219679,42.7602801 L36.9259049,42.109624 C37.3389372,42.0407852 37.7523957,41.9745285 38.1662561,41.9108577 L38.1662561,41.9108577 L41.3193174,41.4257713 C43.1485796,41.1443464 44.9861257,40.919691 46.8293087,40.752129 C48.6767504,40.5841797 50.5308567,40.5000756 52.3859168,40.5000756 L52.3859168,40.5000756 L52.6245765,40.5000756 C54.5916273,40.5000756 56.5549152,40.3281724 58.4920345,39.9863278 L58.4920345,39.9863278 L60.5126952,39.6297406 C62.8105431,39.224238 65.0464574,38.5239066 67.1650474,37.5460959 C69.2186297,36.5982887 70.9952421,35.1403185 72.3255428,33.3111551 L72.3255428,33.3111551 L74.2177098,30.7094565 Z" id="path-17"></path>
        <filter x="-11.1%" y="-26.1%" width="122.2%" height="152.2%" filterUnits="objectBoundingBox" id="filter-18">
            <feOffset dx="0" dy="0" in="SourceAlpha" result="shadowOffsetOuter1"></feOffset>
            <feGaussianBlur stdDeviation="2" in="shadowOffsetOuter1" result="shadowBlurOuter1"></feGaussianBlur>
            <feColorMatrix values="0 0 0 0 1   0 0 0 0 0.447058824   0 0 0 0 0.447058824  0 0 0 1 0" type="matrix" in="shadowBlurOuter1"></feColorMatrix>
        </filter>
        <path d="M77.9009697,48.052862 L76.4821086,48.7622926 C75.4829332,49.2618802 74.4097503,49.5971173 73.3038658,49.7551008 C72.1835872,49.9151406 71.0475683,49.9328866 69.9228375,49.8079165 L68.7323567,49.6756409 C67.7025518,49.5612181 66.674597,49.4307165 65.6488686,49.2841839 L65.4452872,49.2551008 C64.2566683,49.0852981 63.057496,49.0000756 61.8568096,49.0000756 L56.6553529,49.0000756 C56.0116336,49.0000756 55.3703438,48.9211292 54.7458443,48.7650043 C54.0250058,48.5847947 53.2770282,48.539628 52.5397425,48.6317887 L50.9664449,48.8284509 C50.0258885,48.9460205 49.0870425,49.0768905 48.1501887,49.2210219 L43.7898267,49.8918468 C43.3215192,49.9638941 42.8483937,50.0000756 42.3745765,50.0000756 C41.8305464,50.0000756 41.289171,50.0758979 40.766073,50.2253544 L37.987216,51.0193136 C37.7216985,51.0951757 37.5679524,51.3719186 37.6438146,51.6374361 C37.7196767,51.9029536 37.9964196,52.0566997 38.2619371,51.9808375 L41.0407941,51.1868784 C41.4745506,51.062948 41.923463,51.0000756 42.3745765,51.0000756 C42.8993015,51.0000756 43.4232605,50.9600067 43.9418839,50.8802185 L48.3022459,50.2093936 C49.2297778,50.0666964 50.159282,49.9371285 51.0904796,49.8207288 L52.6637773,49.6240666 C53.2785541,49.5472195 53.9022461,49.5848812 54.5033087,49.7351468 C55.2071288,49.9111018 55.9298718,50.0000756 56.6553529,50.0000756 L61.8568096,50.0000756 C63.0101771,50.0000756 64.1620902,50.0819395 65.3038658,50.2450503 L65.5074472,50.2741334 C66.5434845,50.4221387 67.5817705,50.5539518 68.6219251,50.6695246 L69.8124059,50.8018002 C71.020918,50.9360793 72.241559,50.9170115 73.4452872,50.7450503 C74.6575735,50.5718665 75.8340119,50.2043749 76.9293222,49.6567197 L78.3481833,48.9472892 C78.5951726,48.8237945 78.6952847,48.523458 78.5717901,48.2764688 C78.4482955,48.0294795 78.147959,47.9293673 77.9009697,48.052862 Z" id="path-19"></path>
        <filter x="-14.6%" y="-150.0%" width="129.3%" height="400.0%" filterUnits="objectBoundingBox" id="filter-20">
            <feOffset dx="0" dy="0" in="SourceAlpha" result="shadowOffsetOuter1"></feOffset>
            <feGaussianBlur stdDeviation="2" in="shadowOffsetOuter1" result="shadowBlurOuter1"></feGaussianBlur>
            <feColorMatrix values="0 0 0 0 1   0 0 0 0 0.447058824   0 0 0 0 0.447058824  0 0 0 1 0" type="matrix" in="shadowBlurOuter1"></feColorMatrix>
        </filter>
        <path d="M81.9809026,24.5211624 C82.245399,24.4418135 82.5241407,24.5919052 82.6034897,24.8564016 L82.6034897,24.8564016 L83.6665224,28.3998442 C83.9759677,29.4313283 84.0448149,30.5200264 83.8677735,31.5822751 C83.6907593,32.6443604 83.2733995,33.6519559 82.6475598,34.5281315 L82.6475598,34.5281315 L82.1663471,35.2018293 C81.6575558,35.9141371 81.1312023,36.6136518 80.5877809,37.2997334 L81.4780992,38.7841215 C81.8680244,39.4339967 82.2328567,40.0986019 82.5717901,40.7764688 C82.9353184,41.5035253 83.1245765,42.3052357 83.1245765,43.1181096 L83.1245765,43.1181096 L83.1245765,43.7500756 C83.1245765,44.9363464 83.0507935,46.1214689 82.9036547,47.2985792 L82.9036547,47.2985792 L82.6207155,49.5620929 C82.5864642,49.8361029 82.3365691,50.0304657 82.0625592,49.9962145 C81.7885492,49.9619633 81.5941863,49.7120682 81.6284376,49.4380582 L81.6284376,49.4380582 L81.9113768,47.1745445 C82.0533725,46.038579 82.1245765,44.8948814 82.1245765,43.7500756 L82.1245765,43.7500756 L82.1245765,43.1181096 C82.1245765,42.4604808 81.9714635,41.8118834 81.6773629,41.2236824 C81.3498754,40.5687072 80.9973636,39.926546 80.6206063,39.2986172 L80.6206063,39.2986172 L79.916501,38.1259439 L79.7586872,38.3201678 L79.662796,38.4352372 C78.9053293,39.3441972 78.1969234,40.2929431 77.5406017,41.2774257 C76.8410908,42.3266919 75.917308,43.2075319 74.835957,43.8563424 L74.835957,43.8563424 L73.8818244,44.428822 C73.6450343,44.5708961 73.3379041,44.4941136 73.1958301,44.2573234 C73.053756,44.0205333 73.1305385,43.7134032 73.3673286,43.5713291 L73.3673286,43.5713291 L74.3214613,42.9988495 C75.2758499,42.4262163 76.0911707,41.6487965 76.7085514,40.7227255 C77.3846132,39.7086327 78.1143258,38.7313515 78.8945747,37.7950528 L78.8945747,37.7950528 L78.9904659,37.6799834 C79.8155615,36.6898686 80.6034903,35.6693637 81.3526136,34.6205911 L81.3526136,34.6205911 L81.8338263,33.9468933 C82.3711096,33.1946967 82.7294129,32.3296761 82.8813796,31.4178761 C83.0332899,30.5064139 82.9742156,29.5722568 82.7086961,28.687192 L82.7086961,28.687192 L81.6456634,25.1437495 C81.5663145,24.8792531 81.7164062,24.6005113 81.9809026,24.5211624 Z" id="path-21"></path>
        <filter x="-55.4%" y="-23.5%" width="210.7%" height="147.1%" filterUnits="objectBoundingBox" id="filter-22">
            <feOffset dx="0" dy="0" in="SourceAlpha" result="shadowOffsetOuter1"></feOffset>
            <feGaussianBlur stdDeviation="2" in="shadowOffsetOuter1" result="shadowBlurOuter1"></feGaussianBlur>
            <feColorMatrix values="0 0 0 0 1   0 0 0 0 0.447058824   0 0 0 0 0.447058824  0 0 0 1 0" type="matrix" in="shadowBlurOuter1"></feColorMatrix>
        </filter>
        <linearGradient x1="-1.11022302e-14%" y1="50%" x2="100%" y2="50%" id="linearGradient-23">
            <stop stop-color="#F78831" offset="0%"></stop>
            <stop stop-color="#EB5016" offset="100%"></stop>
        </linearGradient>
        <linearGradient x1="100%" y1="50%" x2="0%" y2="50%" id="linearGradient-24">
            <stop stop-color="#EB5016" offset="0%"></stop>
            <stop stop-color="#EB5016" offset="100%"></stop>
        </linearGradient>
    </defs>
    <g id="psico" stroke="none" stroke-width="1" fill="none" fill-rule="evenodd">
        <g id="Group" transform="translate(50.305367, 49.500000) rotate(-10.000000) translate(-50.305367, -49.500000) translate(3.805367, 12.000000)">
            <g id="Path-44">
                <mask id="mask-3" fill="white">
                    <use xlink:href="#path-2"></use>
                </mask>
                <g id="Mask">
                    <use fill="url(#linearGradient-1)" fill-rule="evenodd" xlink:href="#path-2"></use>
                    <use fill="black" fill-opacity="1" filter="url(#filter-4)" xlink:href="#path-2"></use>
                </g>
                <g id="Combined-Shape" fill-rule="nonzero" mask="url(#mask-3)">
                    <use fill="black" fill-opacity="1" filter="url(#filter-6)" xlink:href="#path-5"></use>
                    <use fill="#F98181" xlink:href="#path-5"></use>
                </g>
                <path d="M23.5625592,52.9962145 L31.5625592,53.9962145 L34.0265185,54.4903659 C34.2972983,54.5445219 34.5607109,54.3689135 34.6148669,54.0981336 C34.6690228,53.8273538 34.4934145,53.5639412 34.2226346,53.5097852 L31.7226346,53.0097852 L27.6865939,52.5039366 L23.6865939,52.0039366 C23.4125839,51.9696854 23.1626888,52.1640482 23.1284376,52.4380582 C23.0941863,52.7120682 23.2885492,52.9619633 23.5625592,52.9962145 Z" id="Path-64" fill="#F98181" fill-rule="nonzero" mask="url(#mask-3)"></path>
                <path d="M44.7458443,56.4851468 L46.3083915,56.09451 C47.8653721,55.7052649 49.4778906,55.5879008 51.0748247,55.7475942 C52.7569886,55.9158105 54.4464916,56.0000756 56.1370454,56.0000756 L64.6245765,56.0000756 C66.9376756,56.0000756 69.2490022,56.1280887 71.5479538,56.3835278 L72.5693608,56.4970174 L77.5748247,56.9975942 C77.8495966,57.0250714 78.0946179,56.8245994 78.1220951,56.5498274 C78.1495723,56.2750555 77.9491003,56.0300342 77.6743284,56.002557 L72.6743284,55.502557 L71.6583854,55.389644 C69.3227643,55.1301306 66.9745708,55.0000756 64.6245765,55.0000756 L56.1370454,55.0000756 C54.4797214,55.0000756 52.8234274,54.9174669 51.1743284,54.752557 C49.4627983,54.581404 47.7345654,54.7071901 46.0658558,55.1243675 L44.5033087,55.5150043 C44.2354113,55.5819787 44.0725309,55.8534459 44.1395053,56.1213434 C44.2064796,56.3892408 44.4779469,56.5521212 44.7458443,56.4851468 Z" id="Path-65" fill="#F98181" fill-rule="nonzero" mask="url(#mask-3)"></path>
                <g fill-rule="nonzero" mask="url(#mask-3)">
                    <use fill="black" fill-opacity="1" filter="url(#filter-8)" xlink:href="#path-7"></use>
                    <use fill="#F98181" xlink:href="#path-7"></use>
                </g>
            </g>
            <g id="Combined-Shape" fill-rule="nonzero">
                <use fill="black" fill-opacity="1" filter="url(#filter-10)" xlink:href="#path-9"></use>
                <use fill="#F98181" xlink:href="#path-9"></use>
            </g>
            <path d="M8.9782294,18.1738547 C9.21239766,18.0274996 9.52087285,18.0986861 9.66722802,18.3328544 C9.81358319,18.5670227 9.7423966,18.8754979 9.50822834,19.021853 L9.50822834,19.021853 L6.45631926,20.9292962 C5.91431409,21.2680494 5.47628275,21.7497801 5.19044246,22.3214607 C4.91610595,22.8701337 4.83247919,23.4945957 4.95278371,24.0961183 L4.95278371,24.0961183 L4.98351921,24.2497958 C5.11099846,24.8871921 5.52561624,25.4300306 6.10701109,25.720728 L6.10701109,25.720728 L7.70421014,26.518787 L8.55030423,25.4611655 C8.70364181,25.2694936 8.96928865,25.2205734 9.17787274,25.3332242 L9.25308616,25.3830787 C9.46871712,25.5555834 9.50367781,25.8702296 9.33117304,26.0858606 L9.33117304,26.0858606 L8.02960333,27.7128227 C7.5872809,28.2657258 7.2046069,28.8638105 6.88795223,29.4971199 L6.88795223,29.4971199 L6.83516582,29.6026927 C6.57577915,30.121466 6.44073863,30.6935068 6.44073863,31.2735131 L6.44073863,31.2735131 L6.44073863,31.4829436 C6.44073863,31.952824 6.51649106,32.4196315 6.66508028,32.8653992 C6.79570713,33.2572797 7.04273149,33.6000077 7.37319417,33.8478547 L7.37319417,33.8478547 L7.84631144,34.2026927 C8.49661054,34.690417 9.02442398,35.3228498 9.38795223,36.0499063 C9.51144685,36.2968955 9.41133468,36.597232 9.16434543,36.7207267 C8.91735618,36.8442213 8.61701966,36.7441091 8.49352504,36.4971199 C8.19942451,35.9089188 7.77241446,35.3972699 7.24631144,35.0026927 L7.24631144,35.0026927 L6.77319417,34.6478547 C6.28000792,34.277965 5.91134597,33.7664739 5.71639698,33.1816269 C5.53381894,32.6338928 5.44073863,32.0603061 5.44073863,31.4829436 L5.44073863,31.4829436 L5.44073863,31.2735131 C5.44073863,30.5382617 5.61192425,29.8131079 5.94073863,29.1554791 L5.94073863,29.1554791 L5.99352504,29.0499063 C6.34167689,28.3536026 6.76241492,27.6960272 7.24873452,27.0881277 L7.07021014,27.319787 L5.6597975,26.6151552 C4.86363429,26.2170736 4.27954273,25.4983726 4.04964075,24.6451202 L4.00293853,24.445912 L3.97220303,24.2922345 C3.80828702,23.4726544 3.92222925,22.6218191 4.29601527,21.8742471 C4.66414499,21.1379876 5.22827943,20.5175735 5.92632032,20.0812979 L5.92632032,20.0812979 Z" id="Combined-Shape" fill="#F98181" fill-rule="nonzero"></path>
            <g id="Combined-Shape" fill-rule="nonzero">
                <use fill="black" fill-opacity="1" filter="url(#filter-12)" xlink:href="#path-11"></use>
                <use fill="#F98181" xlink:href="#path-11"></use>
            </g>
            <g id="Path-55" fill-rule="nonzero">
                <use fill="black" fill-opacity="1" filter="url(#filter-14)" xlink:href="#path-13"></use>
                <use fill="#F98181" xlink:href="#path-13"></use>
            </g>
            <path d="M58.6245765,7.50007556 L60.6090121,7.50007556 C61.9306897,7.50007556 63.2510877,7.58228058 64.5625592,7.7462145 C65.8079556,7.90188905 67.0044595,8.32712624 68.0687723,8.99232173 L69.4854804,9.87776431 C70.1090305,10.2674831 70.7899435,10.5568055 71.5033087,10.7351468 C72.1094485,10.8866818 72.6850237,11.1412989 73.2048842,11.4878726 L74.5972264,12.4161007 C76.0494052,13.3842199 77.3543143,14.5567858 78.4716291,15.8975637 L81.7404659,19.8201678 C81.9172479,20.0323062 82.2325303,20.0609682 82.4446687,19.8841862 C82.6568072,19.7074042 82.6854692,19.3921218 82.5086872,19.1799834 L79.2398504,15.2573793 C78.0609595,13.8427102 76.684136,12.6055233 75.1519266,11.5840504 L73.7595844,10.6558223 C73.1443523,10.2456675 72.4631842,9.94433928 71.7458443,9.76500431 C71.1341064,9.61206983 70.5501974,9.36396481 70.0154793,9.02976601 L68.5987712,8.14432343 C67.4112278,7.40210879 66.0761876,6.92763583 64.6865939,6.75393663 C63.3339777,6.5848596 61.9721547,6.50007556 60.6090121,6.50007556 L58.6245765,6.50007556 C58.3484341,6.50007556 58.1245765,6.72393319 58.1245765,7.00007556 C58.1245765,7.27621794 58.3484341,7.50007556 58.6245765,7.50007556 Z" id="Path-46" fill="#F98181" fill-rule="nonzero"></path>
            <path d="M39.1502349,1.15818945 L39.492121,2.1838478 C39.5798509,2.44703741 39.6245765,2.72264935 39.6245765,3.00007556 C39.6245765,3.18761194 39.550078,3.36746732 39.4174697,3.50007556 L39.2710231,3.64652217 C38.9778565,3.93968877 38.6393439,4.1836749 38.2685142,4.36908973 L37.9009697,4.55286197 C37.6539805,4.67635659 37.5538683,4.97669311 37.6773629,5.22368236 C37.8008576,5.47067161 38.1011941,5.57078378 38.3481833,5.44728916 L38.7157278,5.26351693 C39.1826924,5.03003463 39.608962,4.72279687 39.9781299,4.35362895 L40.1245765,4.20718235 C40.4447211,3.88703772 40.6245765,3.45282843 40.6245765,3.00007556 C40.6245765,2.61516726 40.562523,2.23277611 40.4408043,1.86762003 L40.0989182,0.841961681 C40.0115943,0.579990022 39.7284343,0.438410029 39.4664626,0.525733915 C39.204491,0.613057801 39.062911,0.896217788 39.1502349,1.15818945 Z" id="Path-56" fill="#F98181" fill-rule="nonzero"></path>
            <g id="Combined-Shape" fill-rule="nonzero">
                <use fill="black" fill-opacity="1" filter="url(#filter-16)" xlink:href="#path-15"></use>
                <use fill="#F98181" xlink:href="#path-15"></use>
            </g>
            <g id="Combined-Shape" fill-rule="nonzero">
                <use fill="black" fill-opacity="1" filter="url(#filter-18)" xlink:href="#path-17"></use>
                <use fill="#F98181" xlink:href="#path-17"></use>
            </g>
            <g id="Path-63" fill-rule="nonzero">
                <use fill="black" fill-opacity="1" filter="url(#filter-20)" xlink:href="#path-19"></use>
                <use fill="#F98181" xlink:href="#path-19"></use>
            </g>
            <path d="M60.7710231,16.6465222 L59.9084006,17.5091447 C59.507801,17.9097443 59.0686107,18.2697942 58.5972264,18.5840504 C58.0333446,18.9599716 57.5773274,19.4765398 57.27425,20.0826945 L57.1773629,20.2764688 C57.0538683,20.523458 57.1539805,20.8237945 57.4009697,20.9472892 C57.647959,21.0707838 57.9482955,20.9706716 58.0717901,20.7236824 L58.1686772,20.5299081 C58.3939274,20.0794078 58.732844,19.6954891 59.1519266,19.4161007 C59.6781031,19.0653164 60.1683434,18.6634155 60.6155074,18.2162515 L61.4781299,17.353629 C61.6733921,17.1583668 61.6733921,16.8417843 61.4781299,16.6465222 C61.2828678,16.45126 60.9662853,16.45126 60.7710231,16.6465222 Z" id="Path-66" fill="#F98181" fill-rule="nonzero"></path>
            <g id="Combined-Shape" fill-rule="nonzero">
                <use fill="black" fill-opacity="1" filter="url(#filter-22)" xlink:href="#path-21"></use>
                <use fill="#F98181" xlink:href="#path-21"></use>
            </g>
            <path d="M59.389576,66.5760764 L56.8886394,65.012991 C55.9245721,64.410449 55.0320213,63.7004135 54.2281299,62.8965222 C53.4828671,62.1512594 52.9748779,61.2020729 52.7681792,60.1685794 L52.6148669,59.4020175 C52.5607109,59.1312376 52.2972983,58.9556293 52.0265185,59.0097852 C51.7557386,59.0639412 51.5801302,59.3273538 51.6342862,59.5981336 L51.7875986,60.3646955 C52.0330155,61.5917802 52.6361598,62.7187656 53.5210231,63.603629 C54.3784288,64.4610347 55.330396,65.2183366 56.3586404,65.8609893 L58.8595771,67.4240747 C59.0937453,67.5704299 59.4022205,67.4992433 59.5485757,67.265075 C59.6949308,67.0309068 59.6237443,66.7224316 59.389576,66.5760764 Z" id="Path-69" fill="#F98181" fill-rule="nonzero"></path>
        </g>
        <path d="M25.7432813,91.1542412 C33.1520446,87.6781485 36.8564262,83.8363048 36.8564262,79.6287101 C36.8564262,79.6287101 36.8564262,79.6287101 36.8564262,79.6287101 C36.8564262,76.3235066 34.1770293,73.6441098 30.8718258,73.6441098 C29.7336505,73.6441098 28.6190753,73.9686748 27.6588558,74.5797573 L25.7432813,75.7987592 L25.7432813,75.7987592 L23.3146851,74.3463854 C20.3973374,72.6017324 16.6180369,73.5523808 14.8733774,76.4697245 C14.302385,77.4245132 14.0008539,78.5162113 14.0008539,79.6287101 C14.0008539,79.6287101 14.0008539,79.6287101 14.0008539,79.6287101 C14.0008539,83.8363048 17.9149964,87.6781485 25.7432813,91.1542412 Z" id="Oval" fill="url(#linearGradient-23)" transform="translate(25.428640, 81.904241) rotate(-20.000000) translate(-25.428640, -81.904241) "></path>
        <path d="M69.1973229,10.7973561 C72.4011124,9.29418086 74.0030072,7.63284305 74.0030072,5.81334266 C74.0030072,5.81334266 74.0030072,5.81334266 74.0030072,5.81334266 C74.0030072,4.38405475 72.8443404,3.22538798 71.4150525,3.22538798 C70.9228649,3.22538798 70.4408828,3.36574148 70.0256657,3.63002047 L69.1973229,4.15714767 L69.1973229,4.15714767 L68.1471041,3.52908516 C66.8855422,2.77467282 65.2512626,3.18576087 64.496821,4.44730529 C64.2499073,4.86018369 64.1195165,5.33226577 64.1195165,5.81334266 C64.1195165,5.81334266 64.1195165,5.81334266 64.1195165,5.81334266 C64.1195165,7.63284305 65.8121186,9.29418086 69.1973229,10.7973561 Z" id="Oval-Copy" fill="url(#linearGradient-24)" opacity="0.502208891" transform="translate(69.061262, 6.797356) rotate(-10.000000) translate(-69.061262, -6.797356) "></path>
    </g>
</svg>