<?xml version="1.0" encoding="UTF-8"?>
<svg width="98px" height="98px" viewBox="0 0 98 98" version="1.1" xmlns="http://www.w3.org/2000/svg" xmlns:xlink="http://www.w3.org/1999/xlink">
    <title>social</title>
    <defs>
        <linearGradient x1="54.4803633%" y1="100%" x2="54.4803633%" y2="10.8013609%" id="linearGradient-1">
            <stop stop-color="#16B76D" offset="0%"></stop>
            <stop stop-color="#40D8AD" offset="99.9894426%"></stop>
        </linearGradient>
        <linearGradient x1="50%" y1="100%" x2="50%" y2="50%" id="linearGradient-2">
            <stop stop-color="#FFF5E5" offset="0%"></stop>
            <stop stop-color="#FFDCA9" offset="100%"></stop>
        </linearGradient>
        <linearGradient x1="50%" y1="0%" x2="50%" y2="100%" id="linearGradient-3">
            <stop stop-color="#FFF5E5" offset="0%"></stop>
            <stop stop-color="#FFE8C6" offset="100%"></stop>
        </linearGradient>
    </defs>
    <g id="social" stroke="none" stroke-width="1" fill="none" fill-rule="evenodd">
        <path d="M91.4330484,98 L59.3082406,98 C60.2263209,93.9833359 60.763574,90.4321042 60.92,87.346305 C61.1141259,83.5168036 60.7608577,79.63244 59.8601952,75.6932141 C58.7557264,70.862613 59.8725078,65.7912598 62.9039367,61.8714387 L68.9127962,54.1016199 C69.8713331,52.8621736 71.1373125,51.9205501 72.5640431,51.355032 C72.6224138,51.0864085 72.6515991,50.8434995 72.6515991,50.626305 C72.6515991,49.8634925 72.3410661,48.5434925 71.72,46.666305 L65.8660709,46.8914561 C63.8231519,46.9700299 62.0048712,45.6057896 61.5090242,43.6224017 L59.84,36.946305 L58.5591697,36.5193616 C57.8046913,36.2678688 57.3969409,35.452368 57.6484337,34.6978896 C57.7021534,34.5367305 57.7839655,34.3863481 57.8900866,34.2536967 L59.48,32.266305 L60.2955714,29.1146736 C60.372054,28.81912 60.3850164,28.5107107 60.3336037,28.2097816 L59.7657996,24.886305 C59.350283,22.4541994 59.8571152,19.9545625 61.1871467,17.8763883 L62,16.606305 C63.8223425,13.7588949 66.8292804,11.882701 70.1878878,11.4974315 L73.9767747,11.0628043 C78.1819009,10.5804298 82.3978917,11.8716987 85.6115991,14.626305 L86.2591045,15.1813096 C86.7027187,15.5615504 87.1121482,15.9726698 87.4854836,16.4099477 L87.56,16.426305 C90.2,19.546305 91.76,25.906305 92.24,35.506305 C92.72,45.106305 94.64,52.666305 98,58.186305 L93.8296026,57.5054238 C94.9298675,61.090745 95.48,64.7768094 95.48,68.5636169 C95.48,74.2450863 93.4856817,79.6416418 91.52,91.2436169 C91.3465706,92.2672435 91.3175867,94.5193712 91.4330484,98 L91.4330484,98 Z" id="Path" fill="#000000" fill-rule="nonzero" opacity="0.200116"></path>
        <path d="M43.1364117,98 L4.27027601,98 L4.25396659,94.3858986 C3.41798886,81.8264713 3,72.3460826 3,65.9447325 C3,60.2805257 4.90540996,53.9948817 8.71622987,47.0878005 C9.45821749,45.7429538 10.7744557,44.8430905 12.2528086,44.6130196 C14.0961386,41.3830838 15.2922452,39.1408208 15.8411284,37.8862305 C16.3418325,36.7417641 16.6650863,35.9210652 15.3804467,33.1522531 L14.0911284,35.0862305 L13.7411284,31.9362305 L12.6911284,32.2862305 L12.3411284,30.1862305 L11.9911284,27.7362305 L10.9411284,29.1362305 L10.5911284,27.0362305 L10.5911284,23.5362305 L9.19112843,23.1862305 L9.89112843,17.5862305 L9.19112843,17.2362305 L10.2411284,13.0362305 L9.19112843,11.9862305 L10.9411284,11.2862305 L10.5911284,9.18623047 L11.6411284,10.2362305 L11.9911284,8.83623047 L12.3411284,9.88623047 L13.3911284,8.48623047 L17.2411284,6.03623047 L19.6911284,4.63623047 L19.6911284,6.03623047 L22.4911284,6.03623047 L28.4411284,6.38623047 L33.3411284,6.03623047 L33.3411284,7.08623047 L35.0911284,7.78623047 L39.6411284,10.2362305 L41.0411284,10.9362305 L42.0911284,10.9362305 L44.1911284,10.9362305 L41.0411284,13.0362305 L43.1411284,13.7362305 L41.3911284,14.4362305 L42.7911284,15.1362305 L40.4021939,16.1600595 C40.6740569,17.3633758 40.6618996,18.6316078 40.3411284,19.8612305 L39.4791793,23.1653689 C39.3575262,23.6317057 39.3999763,24.1256959 39.599406,24.564441 L41.0411284,27.7362305 L43.2379273,30.3324473 C43.4108298,30.5367867 43.5215286,30.7864104 43.5569055,31.0517372 C43.6590944,31.8181533 43.1206318,32.5222967 42.3542157,32.6244855 L39.6411284,32.9862305 L37.6068737,40.2191361 C36.9872677,42.4221796 34.7179768,43.7236692 32.5035678,43.1459973 L28.4411284,42.0862305 C27.7411284,43.4446072 27.3911284,44.4946072 27.3911284,45.2362305 C27.3911284,45.6346261 27.4921305,46.1220123 27.6941348,46.698389 C29.1133104,47.6655131 30.2321087,49.0642463 30.8490388,50.7435287 L35.6321688,63.763198 C36.9417362,67.3278375 37.959054,70.9931339 38.6740503,74.722799 L43.1364117,98 Z" id="Path" fill="#000000" fill-rule="nonzero" opacity="0.200116"></path>
        <g id="Group-2" transform="translate(21.000000, 18.000000)">
            <path d="M7.70778415,53.1709912 L24.8048828,47.8 L24.8048828,47.8 L39.5048828,47.8 L56.347757,53.1846143 C58.1359456,53.7562926 59.5187092,55.185969 60.0304304,56.9922292 L62.2683469,64.8915678 C63.6608876,69.8069214 64.3671875,74.8911967 64.3671875,80 L64.3671875,80 L64.3671875,80 L4.12114787e-13,80 C4.11488703e-13,74.8876385 0.653525607,69.7962474 1.9446871,64.849618 L3.96767581,57.099251 C4.45476203,55.2331521 5.86781874,53.7490096 7.70778415,53.1709912 Z" id="Rectangle" fill="url(#linearGradient-1)"></path>
            <path d="M23.0835937,35.2745117 L41.2835938,38.4964352 L39.8156512,44.5105013 C39.4054039,46.1912582 39.5520739,47.9597871 40.2335937,49.55 C40.8181079,50.9138663 40.2106779,52.4951919 38.8634093,53.1170082 L36.7335938,54.1 C33.8465895,55.4324635 30.520598,55.4324635 27.6335937,54.1 L25.5037782,53.1170082 C24.1565096,52.4951919 23.5490796,50.9138663 24.1335938,49.55 C24.8186339,47.9515729 25.0216009,46.1877882 24.7175355,44.4755401 L23.0835937,35.2745117 L23.0835937,35.2745117 Z" id="Rectangle" fill="url(#linearGradient-2)"></path>
            <g id="Group" transform="translate(13.283594, 0.709585)">
                <path d="M11.0994902,1.5741878 L12.7105234,1.06304331 C17.361696,-0.412668823 22.3645731,-0.350471932 26.977621,1.24041508 L27.4569576,1.40572234 C31.4571171,2.78524449 34.2123368,6.46373946 34.4112606,10.6904151 C34.6303779,15.3461578 34.3984718,20.0121794 33.7187842,24.6232506 L32.4418042,33.2864161 C31.983965,36.3924445 30.4953845,39.2544298 28.215193,41.4126133 L25.8663717,43.6357544 C22.5109182,46.8116651 17.3184518,47.0003377 13.7413526,44.076327 L10.5834762,41.4949995 C7.89550989,39.2977884 6.11980776,36.1802236 5.60105929,32.7474697 L4.36387359,24.5605462 C3.66911212,19.9630479 3.50471272,15.3009633 3.87390743,10.6659467 C4.20987024,6.44813645 7.06644738,2.85378132 11.0994902,1.5741878 Z" id="Rectangle" fill="url(#linearGradient-3)"></path>
                <path d="M8.14070774,21.3494882 L9.02018571,20.7631695 C9.78459371,20.2535642 10.7503621,20.1513661 11.604499,20.4896962 L13.6854668,21.3139832 C14.6114674,21.680779 15.6498581,21.6358399 16.5407077,21.1904151 L16.5407077,21.1904151 L16.5407077,21.1904151" id="Path-23" stroke="#BE864D" stroke-width="0.5" stroke-linecap="round"></path>
                <circle id="Oval" fill="#BE864D" cx="13.5841648" cy="24.521534" r="1"></circle>
                <path d="M22.2656345,21.3494882 L23.1451125,20.7631695 C23.9095205,20.2535642 24.8752888,20.1513661 25.7294258,20.4896962 L27.8103935,21.3139832 C28.7363942,21.680779 29.7747848,21.6358399 30.6656345,21.1904151 L30.6656345,21.1904151 L30.6656345,21.1904151" id="Path-23" stroke="#BE864D" stroke-width="0.5" stroke-linecap="round" transform="translate(26.465634, 20.926478) scale(-1, 1) translate(-26.465634, -20.926478) "></path>
                <circle id="Oval" fill="#BE864D" transform="translate(25.222177, 24.521534) scale(-1, 1) translate(-25.222177, -24.521534) " cx="25.2221775" cy="24.521534" r="1"></circle>
                <path d="M17.2021207,30.4085059 L16.286368,30.4085059 C16.0052761,30.4085059 15.7637353,30.608002 15.7106243,30.8840308 C15.6544408,31.1760273 15.7661538,31.4749379 16.0000743,31.6585128 L18.5804789,33.6835494 C19.0917354,34.0847706 19.8118806,34.0814029 20.3193623,33.6754176 L22.4964597,31.9337397 C22.7799915,31.7069142 22.9245124,31.3485084 22.8776315,30.9884497 C22.8344374,30.6567076 22.5518239,30.4085059 22.2172816,30.4085059 L21.4021207,30.4085059 L21.4021207,30.4085059" id="Path-43" stroke="#ECC196" stroke-width="0.5" stroke-linecap="round"></path>
                <path d="M15.1407077,37.0149268 C17.9215288,36.5514566 20.7598867,36.5514566 23.5407077,37.0149268 L23.5407077,37.0149268 L23.5407077,37.0149268" id="Path-67" stroke="#ECC196" stroke-width="0.5" stroke-linecap="round"></path>
                <path d="M17.2407077,39.429209 C18.6311182,39.1974739 20.0502972,39.1974739 21.4407077,39.429209 L21.4407077,39.429209 L21.4407077,39.429209" id="Path-67-Copy" stroke="#ECC196" stroke-width="0.5" stroke-linecap="round"></path>
                <path d="M4.55096703,19.7632074 C2.61443068,19.7632074 1.4,19.7072865 1.4,22.3818347 C1.4,25.0563829 2.61443068,29.4486033 4.55096703,29.4486033" id="Path" stroke="#ECC196" stroke-width="0.5" fill="#FBD9B0" transform="translate(2.975484, 24.605820) rotate(-7.000000) translate(-2.975484, -24.605820) "></path>
                <path d="M36.678144,19.7632074 C34.7416076,19.7632074 33.527177,19.7072865 33.527177,22.3818347 C33.527177,25.0563829 34.7416076,29.4486033 36.678144,29.4486033" id="Path-Copy" stroke="#ECC196" stroke-width="0.5" fill="#FBD9B0" transform="translate(35.102660, 24.605820) scale(-1, 1) rotate(-7.000000) translate(-35.102660, -24.605820) "></path>
            </g>
        </g>
        <path d="M45.5,66 L45.0413903,67.1465243 C44.7002919,67.9992704 44.7774688,68.9624479 45.25,69.75 C45.7398272,70.5663787 46.4522984,71.2261492 47.3038405,71.6519202 L48,72 C49.3152576,72.6576288 50.7655653,73 52.236068,73 L53.5,73 L53.5,73 L54.9844356,73 C56.3052544,73 57.6032081,72.6553097 58.75,72 L59.3310919,71.6679475 C60.0880074,71.2354243 60.6762297,70.5594258 61,69.75 C61.3262776,68.9343059 61.4082644,68.0413218 61.2359706,67.1798529 L61,66 L61,66" id="Path-73" stroke="#1DBC76"></path>
    </g>
</svg>