<?xml version="1.0" encoding="UTF-8"?>
<svg width="98px" height="98px" viewBox="0 0 98 98" version="1.1" xmlns="http://www.w3.org/2000/svg" xmlns:xlink="http://www.w3.org/1999/xlink">
    <title>treatment</title>
    <defs>
        <polygon id="path-1" points="0 0 98 0 98 98 0 98"></polygon>
        <path d="M23.78305,11 L20.729139,11 C14.0427485,11 11.6181017,11.6961921 9.17365722,13.0034953 C6.72921278,14.3107985 4.81079847,16.2292128 3.50349528,18.6736572 C2.19619208,21.1181017 1.5,23.5427485 1.5,30.229139 L1.5,59.770861 C1.5,66.4572515 2.19619208,68.8818983 3.50349528,71.3263428 C4.81079847,73.7707872 6.72921278,75.6892015 9.17365722,76.9965047 C11.6181017,78.3038079 14.0427485,79 20.729139,79 L35.9532139,79 C42.6396045,79 45.0642513,78.3038079 47.5086957,76.9965047 C49.9531402,75.6892015 51.8715545,73.7707872 53.1788577,71.3263428 C54.4861609,68.8818983 55.1823529,66.4572515 55.1823529,59.770861 L55.1823529,30.229139 C55.1823529,23.5427485 54.4861609,21.1181017 53.1788577,18.6736572 C51.8715545,16.2292128 49.9531402,14.3107985 47.5086957,13.0034953 C45.0642513,11.6961921 42.6396045,11 35.9532139,11 L33.5345971,11 C32.3114114,12.2565384 30.5793372,13.0404942 28.6588235,13.0404942 C26.7383098,13.0404942 25.0062357,12.2565384 23.78305,11 Z M22.6886557,9.5 C22.2155792,8.60688513 21.9485294,7.59386926 21.9485294,6.52024708 C21.9485294,2.91921405 24.9528304,7.10542736e-15 28.6588235,7.10542736e-15 C32.3648166,7.10542736e-15 35.3691176,2.91921405 35.3691176,6.52024708 C35.3691176,7.59386926 35.1020679,8.60688513 34.6289914,9.5 L35.9532139,9.5 C42.2757857,9.5 45.1910478,10.0629631 48.216094,11.6807755 C50.9219412,13.1278784 53.0544746,15.2604118 54.5015775,17.9662589 C56.1193899,20.9913051 56.6823529,23.9065672 56.6823529,30.229139 L56.6823529,59.770861 C56.6823529,66.0934328 56.1193899,69.0086949 54.5015775,72.0337411 C53.0544746,74.7395882 50.9219412,76.8721216 48.216094,78.3192245 C45.1910478,79.9370369 42.2757857,80.5 35.9532139,80.5 L20.729139,80.5 C14.4065672,80.5 11.4913051,79.9370369 8.46625893,78.3192245 C5.76041178,76.8721216 3.62787838,74.7395882 2.18077548,72.0337411 C0.562963091,69.0086949 -3.12638804e-13,66.0934328 -3.12638804e-13,59.770861 L-3.12638804e-13,30.229139 C-3.12638804e-13,23.9065672 0.562963091,20.9913051 2.18077548,17.9662589 C3.62787838,15.2604118 5.76041178,13.1278784 8.46625893,11.6807755 C11.4913051,10.0629631 14.4065672,9.5 20.729139,9.5 L22.6886529,9.5 L22.6886557,9.5 Z M26.6823675,9.5 L30.6352795,9.5 C31.6770481,8.87666675 32.3691176,7.7751379 32.3691176,6.52024708 C32.3691176,4.5760683 30.7079624,3 28.6588235,3 C26.6096847,3 24.9485294,4.5760683 24.9485294,6.52024708 C24.9485294,7.7751379 25.6405989,8.87666675 26.6823675,9.5 L26.6823675,9.5 Z" id="path-3"></path>
        <linearGradient x1="59.1255196%" y1="100%" x2="59.1255196%" y2="52.3652918%" id="linearGradient-5">
            <stop stop-color="#22276B" offset="0%"></stop>
            <stop stop-color="#3A3F95" offset="100%"></stop>
        </linearGradient>
        <path d="M20.729139,11 L35.9532139,11 C42.6396045,11 45.0642513,11.6961921 47.5086957,13.0034953 C49.9531402,14.3107985 51.8715545,16.2292128 53.1788577,18.6736572 C54.4861609,21.1181017 55.1823529,23.5427485 55.1823529,30.229139 L55.1823529,59.770861 C55.1823529,66.4572515 54.4861609,68.8818983 53.1788577,71.3263428 C51.8715545,73.7707872 49.9531402,75.6892015 47.5086957,76.9965047 C45.0642513,78.3038079 42.6396045,79 35.9532139,79 L20.729139,79 C14.0427485,79 11.6181017,78.3038079 9.17365722,76.9965047 C6.72921278,75.6892015 4.81079847,73.7707872 3.50349528,71.3263428 C2.19619208,68.8818983 1.5,66.4572515 1.5,59.770861 L1.5,30.229139 C1.5,23.5427485 2.19619208,21.1181017 3.50349528,18.6736572 C4.81079847,16.2292128 6.72921278,14.3107985 9.17365722,13.0034953 C11.6181017,11.6961921 14.0427485,11 20.729139,11 Z" id="path-6"></path>
        <linearGradient x1="59.1255196%" y1="100%" x2="59.1255196%" y2="-16.1755757%" id="linearGradient-8">
            <stop stop-color="#22276B" offset="0%"></stop>
            <stop stop-color="#3A3F95" offset="100%"></stop>
        </linearGradient>
    </defs>
    <g id="treatment" stroke="none" stroke-width="1" fill="none" fill-rule="evenodd">
        <g id="Group" transform="translate(0.000000, 0.000000)">
            <mask id="mask-2" fill="white">
                <use xlink:href="#path-1"></use>
            </mask>
            <use id="Mask" fill-opacity="0" fill="#FFFFFF" fill-rule="nonzero" xlink:href="#path-1"></use>
            <g id="Mask-+-Rectangle-3-Mask" mask="url(#mask-2)">
                <g transform="translate(28.500000, -17.000000)">
                    <mask id="mask-4" fill="white">
                        <use xlink:href="#path-3"></use>
                    </mask>
                    <use id="Mask" stroke="none" fill="#A3ACF7" fill-rule="evenodd" xlink:href="#path-3"></use>
                    <mask id="mask-7" fill="white">
                        <use xlink:href="#path-6"></use>
                    </mask>
                    <use id="Mask" stroke="none" fill="url(#linearGradient-5)" fill-rule="evenodd" xlink:href="#path-6"></use>
                    <path d="M20.729139,11 L36.9532139,11 C43.6396045,11 46.0642513,11.6961921 48.5086957,13.0034953 C50.9531402,14.3107985 52.8715545,16.2292128 54.1788577,18.6736572 C55.4861609,21.1181017 56.1823529,23.5427485 56.1823529,30.229139 L56.1823529,45.2312972 L1.5,45.2312972 L1.5,30.229139 C1.5,23.5427485 2.19619208,21.1181017 3.50349528,18.6736572 C4.81079847,16.2292128 6.72921278,14.3107985 9.17365722,13.0034953 C11.6181017,11.6961921 14.0427485,11 20.729139,11 Z" id="Rectangle-3" stroke="none" fill="#666ED3" fill-rule="evenodd" mask="url(#mask-7)"></path>
                </g>
            </g>
            <rect id="Rectangle-4-Copy-3" fill="#FFFFFF" x="56" y="76" width="2" height="22"></rect>
            <rect id="Rectangle" fill="#F8E71C" fill-rule="nonzero" x="55" y="75" width="4" height="2"></rect>
            <path d="M52,62 L62.0654412,62 L62.0654412,71.698008 C62.0654412,73.5440122 60.5689592,75.0404942 58.722955,75.0404942 L55.3424861,75.0404942 C53.496482,75.0404942 52,73.5440122 52,71.698008 L52,62 L52,62 Z" id="Rectangle-4" fill="url(#linearGradient-8)"></path>
            <g id="Group-7" transform="translate(46.000000, 63.479980)" fill="#FFFFFF">
                <path d="M18,0 L22,0 L22,4 C22,5.1045695 21.1045695,6 20,6 C18.8954305,6 18,5.1045695 18,4 L18,0 L18,0 Z" id="Rectangle-4-Copy-2"></path>
                <path d="M0,0 L4,0 L4,4 C4,5.1045695 3.1045695,6 2,6 C0.8954305,6 1.3527075e-16,5.1045695 0,4 L0,0 L0,0 Z" id="Rectangle-4-Copy-4"></path>
            </g>
            <g id="Group-9" transform="translate(43.000000, 19.000000)">
                <rect id="Rectangle-5" fill="#FFFFFF" x="0" y="0" width="28" height="18" rx="1"></rect>
                <g id="Group-8" transform="translate(2.000000, 3.000000)" fill="#8D8D8D">
                    <rect id="Rectangle-9" x="0.415808824" y="0.0576527111" width="10.4860294" height="1" rx="0.5"></rect>
                    <rect id="Rectangle-9-Copy" x="0.415808824" y="3.86113018" width="23.4860294" height="1" rx="0.5"></rect>
                    <rect id="Rectangle-9-Copy-2" x="0.415808824" y="7.66460764" width="23.4860294" height="1" rx="0.5"></rect>
                    <path d="M0.823324266,11.4680851 L23.4943228,11.4680851 C23.7193874,11.4680851 23.9018382,11.650536 23.9018382,11.8756005 C23.9018382,12.1006651 23.7193874,12.283116 23.4943228,12.283116 L0.823324266,12.283116 C0.598259702,12.283116 0.415808824,12.1006651 0.415808824,11.8756005 C0.415808824,11.650536 0.598259702,11.4680851 0.823324266,11.4680851 Z" id="Rectangle-9-Copy-3"></path>
                </g>
            </g>
            <path d="M82.6775735,12 C83.0517871,12 83.3551471,12.30336 83.3551471,12.6775735 L83.3551471,43.9236619 C83.3551471,44.2978754 83.0517871,44.6012354 82.6775735,44.6012354 C82.30336,44.6012354 82,44.2978754 82,43.9236619 L82,12.6775735 C82,12.30336 82.30336,12 82.6775735,12 Z" id="Rectangle-7" fill="#FFFFFF" opacity="0.302222842" style="mix-blend-mode: hard-light;"></path>
            <path d="M79.6775735,25 C80.0517871,25 80.3551471,25.30336 80.3551471,25.6775735 L80.3551471,30.9236619 C80.3551471,31.2978754 80.0517871,31.6012354 79.6775735,31.6012354 C79.30336,31.6012354 79,31.2978754 79,30.9236619 L79,25.6775735 C79,25.30336 79.30336,25 79.6775735,25 Z" id="Rectangle-7-Copy" fill="#FFFFFF" opacity="0.302222842" style="mix-blend-mode: hard-light;"></path>
        </g>
    </g>
</svg>